<?xml version="1.0" standalone="no"?>
<!DOCTYPE svg PUBLIC "-//W3C//DTD SVG 20010904//EN"
 "http://www.w3.org/TR/2001/REC-SVG-20010904/DTD/svg10.dtd">
<svg version="1.0" xmlns="http://www.w3.org/2000/svg"
 width="900.000000pt" height="900.000000pt" viewBox="0 0 900.000000 900.000000"
 preserveAspectRatio="xMidYMid meet">
<metadata>
Created by potrace 1.14, written by Peter Selinger 2001-2017
</metadata>
<g transform="translate(0.000000,900.000000) scale(0.100000,-0.100000)"
fill="#000000" stroke="none">
<path d="M3815 7596 c-582 -96 -1051 -484 -1238 -1023 -66 -189 -82 -291 -82
-523 1 -189 3 -215 29 -325 82 -350 276 -664 544 -877 l74 -58 37 37 c72 74
75 67 4 -12 -93 -103 -1041 -1046 -1243 -1236 -137 -128 -161 -147 -205 -158
-82 -20 -189 -77 -229 -121 l-36 -40 0 -385 0 -385 40 -40 c162 -162 674 -234
1675 -234 253 0 1054 0 1780 0 726 0 1489 0 1695 0 878 2 1397 75 1569 220 61
51 61 49 61 438 0 195 -4 365 -9 378 -24 63 -132 131 -276 172 -147 43 -504
96 -647 96 l-47 0 -4 -52 -3 -53 -2 53 c-2 39 -5 51 -14 46 -7 -4 -10 -3 -5 1
4 5 -1 17 -10 27 -14 15 -14 19 -3 16 8 -2 14 3 12 10 -1 8 2 11 8 7 8 -5 8
-11 0 -20 -7 -9 -6 -16 5 -25 13 -11 15 -3 15 69 0 79 -1 81 -20 71 -22 -12
-27 -22 -9 -17 6 1 13 -6 14 -16 3 -15 1 -16 -13 -5 -14 11 -15 10 -9 -5 4
-10 7 -21 7 -23 0 -3 6 -2 13 2 6 4 8 3 4 -1 -20 -23 -33 -12 -32 27 1 21 -2
41 -7 44 -4 3 -8 -48 -8 -112 0 -65 3 -114 7 -111 7 7 32 -22 32 -38 0 -5 -6
-1 -14 9 -11 14 -15 16 -15 5 0 -12 -2 -12 -10 1 -5 8 -10 10 -10 5 0 -6 -13
-18 -29 -28 -26 -15 -75 -17 -539 -17 -501 0 -510 0 -515 20 -4 15 -14 20 -41
20 -20 0 -36 3 -36 8 0 9 31 10 580 18 258 3 449 10 455 15 6 6 11 181 13 473
2 382 0 465 -11 474 -10 8 -161 12 -534 12 -447 1 -520 3 -520 15 0 9 4 11 11
6 17 -13 69 -7 74 9 3 13 2 12 -7 0 -9 -12 -11 -11 -11 8 0 13 4 21 9 18 4 -3
6 6 3 21 -3 18 -1 24 7 19 6 -4 8 -12 5 -18 -4 -7 -2 -8 5 -4 9 6 9 11 0 22
-6 7 -9 21 -5 29 4 10 2 14 -5 9 -7 -4 -10 -1 -7 7 3 8 10 13 16 12 6 -2 9 7
7 19 -3 12 1 28 8 36 6 8 13 27 13 41 3 41 3 43 16 35 7 -4 8 -3 4 5 -4 6 -12
9 -17 6 -14 -9 -11 8 7 33 8 12 12 22 8 22 -3 0 0 8 7 17 10 11 10 14 1 9 -9
-5 -11 -1 -8 16 3 13 5 29 5 35 1 7 6 12 12 10 14 -3 21 31 8 39 -5 3 -5 14 2
27 9 20 9 20 -4 4 -13 -16 -15 -13 -15 27 -1 34 3 46 16 49 9 3 1 5 -18 6 -68
3 -278 20 -317 27 l-41 6 5 42 c8 66 23 105 55 141 50 58 148 104 148 71 0
-18 30 -36 59 -36 11 0 28 11 37 25 20 31 59 34 67 5 4 -16 14 -20 47 -20 33
0 43 4 47 20 3 13 14 20 29 20 13 0 28 -9 34 -20 8 -14 21 -20 45 -20 24 0 37
6 45 20 6 11 21 20 34 20 15 0 26 -7 29 -20 4 -16 14 -20 47 -20 33 0 43 4 47
20 4 14 14 20 33 20 19 0 29 -6 33 -20 4 -16 14 -20 45 -20 32 0 42 4 47 20 4
13 15 20 30 20 15 0 26 -7 30 -20 5 -16 15 -20 47 -20 31 0 41 4 45 20 4 14
14 20 33 20 19 0 29 -6 33 -20 7 -29 86 -29 94 -1 3 12 15 21 31 23 20 2 27 9
27 28 3 81 -1 76 77 90 40 7 79 16 88 20 8 5 50 20 92 35 201 70 397 232 519
430 259 419 174 997 -194 1318 -275 241 -635 322 -980 222 -290 -84 -518 -277
-648 -550 -68 -144 -90 -232 -96 -401 -5 -121 -2 -158 17 -253 12 -62 21 -113
19 -114 -2 -1 -106 -1 -230 1 l-227 3 -12 94 c-44 356 -191 656 -445 910 -219
220 -459 352 -770 422 -137 30 -421 40 -550 19z m325 -154 c21 -12 45 -36 59
-64 22 -41 24 -51 15 -102 l-9 -56 -175 -4 c-197 -4 -300 -24 -451 -90 l-79
-34 -24 42 c-36 62 -41 98 -18 149 25 56 57 78 158 110 202 64 452 87 524 49z
m2580 -18 c0 -9 5 -12 12 -8 7 4 8 3 4 -5 -4 -6 -12 -8 -18 -5 -7 5 -8 2 -3
-6 4 -7 8 -32 8 -54 0 -60 39 -167 150 -407 39 -85 49 -125 30 -121 -7 1 -13
-4 -13 -10 0 -7 -5 -5 -11 5 -5 9 -7 22 -4 27 3 6 2 10 -3 10 -5 0 -35 64 -67
143 -72 176 -103 239 -115 232 -5 -3 -8 0 -5 7 5 15 -80 110 -90 100 -3 -4 13
-25 37 -47 24 -22 35 -33 24 -23 -12 9 -37 23 -56 30 -30 13 -38 12 -70 -3
-19 -9 -55 -33 -80 -52 -24 -20 -49 -33 -55 -30 -5 4 -7 3 -3 -2 4 -4 -17 -34
-47 -67 -116 -125 -143 -190 -108 -258 20 -38 106 -92 131 -82 11 4 13 1 7 -8
-5 -8 -4 -11 3 -7 13 9 44 -2 37 -13 -7 -12 32 -23 46 -14 7 4 9 3 5 -4 -8
-13 29 -26 45 -16 7 4 9 3 6 -3 -8 -12 20 -26 34 -17 5 3 9 1 9 -3 0 -5 36
-24 80 -42 77 -31 99 -54 65 -67 -8 -3 -85 26 -172 64 -87 39 -167 72 -178 74
-11 1 -24 8 -28 13 -5 6 -7 4 -4 -5 2 -8 9 -16 15 -16 7 -1 15 -3 20 -4 4 -1
11 -2 15 -1 5 1 5 -4 1 -10 -4 -7 -3 -9 4 -5 6 3 13 2 17 -4 4 -6 11 -8 16 -5
5 4 9 1 9 -4 0 -6 3 -10 8 -9 4 1 21 -6 37 -16 39 -22 23 -17 -105 34 -62 25
-124 43 -152 44 -26 1 -46 0 -43 -2 3 -3 -4 -12 -15 -19 -54 -38 -78 -181 -60
-352 15 -141 40 -185 111 -196 l34 -5 -32 10 c-53 17 -79 58 -93 150 -15 96
-7 263 14 314 25 61 81 81 155 55 28 -10 32 -15 27 -38 -31 -144 -32 -289 -2
-398 10 -36 11 -53 3 -53 -5 0 -8 -2 -6 -5 3 -2 84 29 181 69 226 95 218 92
218 66 0 -12 4 -19 10 -15 5 3 7 13 4 23 -5 14 -4 14 4 2 19 -26 17 -27 -208
-112 -226 -85 -309 -137 -289 -183 9 -18 9 -18 5 2 -2 13 0 26 5 29 5 3 9 1 9
-5 0 -6 10 0 23 12 14 14 19 25 12 30 -5 5 0 5 13 2 13 -4 21 -2 20 3 -2 6 0
9 3 9 3 -1 14 5 24 13 11 9 16 10 11 3 -9 -16 -1 -16 25 -3 10 6 19 8 19 6 0
-10 -57 -35 -64 -29 -3 4 -6 1 -6 -5 0 -7 -6 -12 -14 -12 -26 0 -76 -68 -76
-105 0 -43 -17 -55 -18 -12 -1 51 -5 66 -13 61 -5 -2 -5 -12 -2 -22 6 -15 5
-16 -13 -2 -17 14 -18 14 -6 -2 9 -11 10 -18 2 -23 -5 -3 -10 -1 -10 6 0 7 -3
9 -6 6 -4 -4 -2 -13 4 -20 7 -8 9 -16 6 -19 -3 -3 -1 -9 5 -12 6 -4 8 2 6 13
-2 11 2 25 10 31 10 9 12 3 10 -27 -2 -26 -7 -37 -16 -35 -8 2 -1 -10 15 -27
17 -17 26 -31 22 -31 -5 0 -3 -7 4 -15 7 -8 17 -12 23 -8 7 4 8 0 3 -13 -6
-15 -5 -16 5 -7 9 9 9 16 1 26 -7 8 -8 18 -4 22 4 5 1 5 -5 1 -9 -5 -11 -2 -7
8 3 9 1 17 -5 17 -6 1 -15 2 -21 3 -5 0 -9 6 -8 11 2 6 7 9 11 7 5 -1 6 2 2 8
-3 5 -1 10 4 10 6 0 11 -6 11 -12 0 -7 25 -43 55 -80 31 -38 50 -70 44 -74 -6
-4 -5 -12 3 -22 12 -15 11 -16 -4 -3 -20 15 -25 2 -6 -17 7 -7 16 -8 23 -2 8
7 12 5 12 -3 0 -28 -30 -12 -79 42 -190 208 -290 510 -258 782 20 178 75 328
173 474 44 66 208 235 228 235 7 0 2 -11 -11 -25 -12 -13 -26 -22 -30 -20 -4
2 -7 -2 -7 -9 0 -7 6 -13 13 -13 7 0 11 3 9 7 -2 4 7 17 20 30 13 13 22 26 20
31 -3 4 8 17 25 29 16 12 30 19 30 16 0 -3 0 -9 0 -13 0 -5 -5 -8 -12 -8 -7 0
-17 -10 -24 -22 -6 -13 -19 -33 -30 -45 -17 -21 -16 -21 9 1 15 14 27 31 27
38 0 8 5 11 10 8 6 -4 7 -11 4 -17 -4 -7 -2 -8 5 -4 6 4 8 12 5 18 -4 6 -2 8
4 4 6 -3 14 -1 17 5 4 5 14 8 22 5 8 -3 11 -2 8 3 -3 5 -1 12 5 16 15 10 2 25
-16 18 -13 -5 -13 -8 -2 -15 10 -8 10 -9 -1 -6 -34 9 -17 28 61 66 119 57 128
60 128 36z m145 6 c-3 -5 -12 -10 -18 -10 -7 0 -6 4 3 10 19 12 23 12 15 0z
m-35 -4 c0 -2 -8 -10 -17 -17 -16 -13 -17 -12 -4 4 13 16 21 21 21 13z m393
-37 c41 -11 77 -56 77 -96 0 -26 -29 -103 -39 -103 -3 1 -33 7 -66 15 -60 15
-256 21 -268 9 -3 -4 -21 -8 -39 -9 -18 -1 -45 -6 -60 -10 -25 -6 -27 -4 -44
48 -14 47 -15 57 -3 82 22 44 58 64 134 74 80 11 253 6 308 -10z m-462 -32
c-10 -9 -11 -8 -5 6 3 10 9 15 12 12 3 -3 0 -11 -7 -18z m-2089 -48 c178 -89
375 -246 410 -327 33 -74 14 -131 -64 -195 l-37 -29 -90 94 c-131 137 -247
217 -416 287 -44 18 -81 35 -83 36 -7 6 21 92 39 116 10 14 33 33 51 42 54 27
100 21 190 -24z m-354 19 c-2 -7 3 -12 10 -10 8 1 11 -2 8 -7 -4 -5 -2 -12 4
-16 9 -5 14 6 12 26 -1 3 5 6 11 6 8 0 6 -14 -8 -42 -11 -23 -24 -40 -29 -37
-5 3 -6 1 -3 -5 3 -5 -3 -43 -14 -84 -20 -78 -110 -475 -111 -496 -1 -7 -5
-10 -9 -7 -5 2 -4 17 2 32 6 14 7 23 3 19 -4 -3 -12 0 -18 8 -9 13 -11 11 -13
-11 -1 -19 1 -23 8 -13 5 8 9 9 9 3 0 -6 -10 -19 -22 -30 -16 -13 -19 -14 -10
-2 7 9 9 18 4 20 -5 1 17 107 49 233 32 127 63 264 70 305 6 41 18 85 25 98
16 24 25 29 22 10z m3058 -62 c-2 -6 -14 -37 -29 -69 -14 -32 -47 -112 -73
-179 -25 -67 -53 -131 -61 -143 -11 -15 -14 -15 -10 -3 4 12 2 15 -9 11 -13
-5 -13 -1 1 33 61 144 135 333 135 345 0 9 10 15 24 15 13 0 23 -5 22 -10z
m233 -50 c75 -58 194 -185 215 -231 29 -61 6 -110 -71 -149 -18 -9 -34 -16
-37 -16 -3 0 -21 24 -39 53 -52 81 -138 167 -215 217 -39 25 -71 50 -71 55 0
6 8 29 19 53 22 48 67 75 113 67 16 -3 54 -25 86 -49z m-975 22 c14 -13 31
-39 40 -60 l14 -36 -56 -38 c-81 -53 -176 -148 -229 -226 -24 -38 -47 -68 -49
-68 -3 0 -22 9 -44 20 -104 53 -93 128 41 274 30 33 83 81 119 108 76 56 122
63 164 26z m-3387 -145 c21 -9 48 -35 64 -61 l28 -44 -64 -54 c-122 -103 -248
-280 -312 -438 l-33 -81 -36 2 c-78 5 -144 73 -144 147 0 51 49 158 126 272
59 90 182 227 229 256 37 22 96 23 142 1z m183 -24 c0 -5 59 -93 131 -196 135
-192 178 -260 159 -248 -6 4 -15 17 -20 29 -9 20 -9 20 -9 0 -1 -11 5 -26 12
-34 10 -12 9 -12 -5 -1 -20 15 -25 2 -6 -17 7 -7 9 -12 5 -12 -4 0 -51 66
-103 148 -53 81 -123 186 -155 233 -50 74 -56 89 -44 99 8 7 12 17 8 24 -4 6
1 5 10 -3 9 -7 17 -17 17 -22z m1782 -181 c-8 -8 -9 -15 -1 -25 7 -7 8 -13 4
-13 -4 0 -2 -7 5 -15 7 -8 17 -12 24 -8 8 4 7 2 -1 -7 -13 -14 -6 -43 8 -34 5
3 6 10 3 16 -4 7 -2 8 5 4 8 -6 9 -12 2 -20 -6 -7 -8 -16 -4 -19 3 -4 12 1 19
11 12 16 12 16 11 -3 -1 -11 3 -19 9 -18 6 1 11 -5 11 -13 0 -11 -4 -11 -20 3
-16 14 -19 15 -15 3 4 -11 -3 -15 -28 -17 -26 -1 -32 2 -27 13 5 13 7 13 14 2
5 -8 8 -5 6 10 -1 23 -2 23 -27 -6 -14 -17 -44 -34 -70 -42 -75 -21 -191 -88
-462 -267 -38 -25 -73 -41 -79 -37 -7 4 -9 3 -6 -3 7 -10 -20 -28 -35 -25 -5
1 -8 -4 -8 -11 0 -6 -6 -3 -12 8 -7 11 -11 22 -9 24 1 2 -2 7 -8 10 -6 4 80
60 192 125 209 122 322 195 393 253 22 18 45 29 49 25 5 -4 5 -2 1 5 -6 11 48
83 62 83 3 0 1 -5 -6 -12z m2537 -121 c-6 -6 -266 -107 -274 -107 -3 0 -4 4
-1 9 4 5 1 11 -4 13 -6 2 51 26 127 54 79 30 142 48 147 43 5 -5 8 -10 5 -12z
m173 -48 c35 -19 51 -76 56 -209 6 -162 -7 -236 -48 -272 -35 -32 -70 -35
-125 -12 -35 14 -37 17 -31 47 31 154 27 313 -10 410 -12 33 110 62 158 36z
m-827 -30 c55 -14 122 -70 146 -123 24 -53 24 -139 0 -192 -10 -22 -37 -56
-60 -76 -106 -91 -251 -70 -334 48 -70 100 -31 265 77 321 66 34 104 39 171
22z m-1806 -58 c14 -10 33 -28 43 -42 38 -51 90 -239 105 -380 l6 -60 -119 3
-118 3 -12 75 c-16 103 -48 218 -84 297 -17 36 -30 67 -30 69 0 1 14 13 31 25
57 40 129 44 178 10z m-1071 -236 c130 -65 197 -179 197 -335 -1 -70 -5 -95
-27 -142 -35 -76 -99 -143 -173 -181 -56 -30 -67 -32 -160 -32 -88 0 -107 3
-157 27 -232 108 -287 417 -107 597 116 115 276 140 427 66z m-1066 -90 c106
-20 200 -39 208 -42 8 -3 19 -5 23 -4 4 1 3 -7 -2 -17 -7 -13 -6 -23 2 -32 10
-10 9 -11 -3 -4 -8 4 -22 9 -31 9 -9 1 -107 21 -217 46 -158 34 -201 47 -199
59 1 10 -6 15 -20 14 -13 -1 -20 2 -18 7 7 10 26 7 257 -36z m-227 15 c-3 -5
-16 -10 -28 -9 -20 1 -20 2 3 9 14 4 26 8 28 9 2 1 0 -3 -3 -9z m4597 -21 c5
14 208 -79 208 -95 0 -12 -6 -12 -37 2 -21 8 -66 27 -100 41 -35 14 -63 29
-63 35 0 5 -4 7 -9 4 -4 -3 -17 1 -27 10 -18 14 -18 15 3 5 12 -6 23 -7 25 -2z
m-4679 -70 l42 -10 0 -167 c0 -193 13 -266 77 -431 l41 -104 -24 -18 c-58 -45
-142 -49 -197 -10 -69 49 -142 331 -142 547 0 91 10 122 53 162 41 38 86 48
150 31z m3587 -54 c0 -2 -6 -5 -13 -8 -8 -3 -14 1 -14 8 0 7 6 11 14 8 7 -3
13 -6 13 -8z m-862 -52 c0 -28 -2 -33 -8 -18 -6 17 -3 55 5 55 2 0 3 -17 3
-37z m1297 -18 c-2 -19 0 -33 5 -30 5 3 7 12 4 19 -3 8 -1 17 4 20 20 12 0
-58 -58 -200 -60 -147 -89 -243 -84 -277 1 -9 -1 -15 -6 -12 -5 3 -11 -1 -14
-7 -3 -7 -3 -2 -2 13 3 21 0 25 -19 25 -13 0 -21 -4 -19 -8 3 -5 10 -5 16 -2
7 5 8 2 3 -6 -6 -9 -4 -11 4 -5 10 6 11 3 2 -13 -10 -18 -41 -22 -41 -5 0 3 7
2 16 -1 10 -4 14 -2 11 6 -2 7 -10 12 -16 10 -17 -3 -14 9 23 78 32 60 72 162
141 353 15 42 29 77 30 77 2 0 2 -16 0 -35z m-595 21 c0 -2 -8 -10 -17 -17
-16 -13 -17 -12 -4 4 13 16 21 21 21 13z m1493 -21 c88 -36 103 -108 41 -191
-84 -113 -216 -229 -272 -240 -38 -8 -87 18 -106 54 -31 62 -30 65 38 110 75
49 170 148 217 226 19 30 37 56 40 56 4 0 23 -7 42 -15z m-452 -237 c23 -65
34 -110 28 -113 -5 -4 -16 9 -23 27 -54 130 -106 264 -105 273 0 5 4 1 9 -10
8 -18 9 -18 10 5 1 29 19 -11 81 -182z m-1748 111 c-5 -5 -7 7 -4 29 5 34 6
35 9 8 2 -16 0 -32 -5 -37z m-932 -12 c13 -3 91 -21 174 -41 372 -91 550 -110
649 -70 10 4 31 8 45 9 15 1 25 7 23 14 -1 7 2 10 8 6 8 -5 8 -11 -1 -21 -6
-7 -9 -20 -6 -27 3 -8 -1 -14 -9 -14 -10 0 -12 7 -8 21 3 12 2 16 -3 10 -4 -6
-16 -10 -26 -8 -11 1 -16 0 -13 -3 3 -4 0 -13 -6 -22 -8 -10 -4 -9 10 3 20 17
33 10 15 -8 -5 -4 -9 -12 -9 -17 -3 -22 -5 -23 -14 -9 -6 9 -10 10 -10 3 0
-16 17 -26 25 -13 4 6 11 8 16 5 5 -4 3 -12 -4 -19 -6 -8 -15 -12 -19 -10 -4
2 -10 -1 -14 -7 -4 -8 -3 -9 4 -5 7 4 12 3 12 -2 0 -17 -13 -22 -29 -9 -14 11
-14 10 -2 -5 7 -10 10 -18 6 -18 -5 0 -1 -8 8 -18 10 -10 14 -22 11 -25 -4 -4
-13 1 -21 11 -13 15 -13 15 -4 -5 11 -22 3 -35 -27 -39 -10 -2 -9 3 3 16 12
14 13 20 4 26 -7 4 -10 3 -5 -4 11 -18 -13 -24 -30 -8 -28 28 -103 77 -158
102 -50 23 -333 86 -508 114 -43 7 -76 16 -73 19 2 4 -9 6 -26 5 -31 -2 -38 4
-44 36 -2 11 1 19 8 17 7 -1 11 4 9 11 -1 8 1 11 6 8 5 -3 19 -7 33 -9z m799
-41 c0 -2 -8 -10 -17 -17 -16 -13 -17 -12 -4 4 13 16 21 21 21 13z m130 -38
c0 -18 -2 -20 -9 -8 -6 8 -7 18 -5 22 9 14 14 9 14 -14z m-316 -17 c3 -4 -6
-6 -19 -3 -14 2 -25 6 -25 8 0 8 39 4 44 -5z m106 -1 c-8 -5 -33 -9 -55 -8
l-40 1 45 7 c25 4 50 8 55 8 6 1 3 -3 -5 -8z m200 -40 c0 -19 -5 -29 -12 -27
-8 1 -14 -10 -16 -26 -2 -15 -8 -25 -13 -22 -5 3 -6 -2 -2 -11 4 -12 3 -15 -6
-10 -7 5 -10 2 -9 -6 2 -7 -2 -12 -9 -11 -7 2 -10 -6 -8 -18 4 -17 2 -19 -10
-9 -13 11 -11 18 15 50 26 33 28 39 15 50 -19 15 -11 25 18 25 15 0 23 7 25
23 5 32 12 27 12 -8z m-15 -77 c-5 -15 -7 -35 -6 -43 2 -13 1 -13 -9 0 -10 12
-11 11 -7 -8 7 -32 -41 -185 -55 -176 -8 5 -9 1 -5 -10 4 -9 -1 -32 -10 -49
-9 -18 -18 -38 -19 -45 -4 -24 -120 -218 -144 -242 -3 -3 -18 -23 -34 -45 -16
-22 -73 -84 -125 -138 -79 -81 -97 -95 -103 -80 -6 16 -7 15 -7 -3 -1 -19 -31
-57 -31 -39 0 4 -8 -3 -18 -16 -15 -17 -21 -19 -27 -9 -6 9 -4 11 5 5 9 -6 11
-4 5 5 -6 9 -4 11 5 5 9 -5 11 -4 6 4 -10 16 -37 -5 -30 -24 4 -9 -18 -29 -60
-55 -36 -23 -68 -41 -72 -40 -4 1 -11 -4 -15 -12 -6 -9 -8 -5 -6 12 2 14 8 23
13 20 5 -3 8 -9 6 -13 -1 -5 2 -6 8 -2 6 3 8 10 5 15 -3 5 3 13 12 19 11 6 13
11 5 11 -7 0 -10 5 -7 10 4 6 11 8 16 5 5 -3 6 1 2 11 -5 15 -7 15 -15 0 -5
-9 -15 -13 -21 -9 -8 4 -7 1 1 -9 9 -11 10 -18 2 -23 -5 -3 -10 0 -10 7 0 10
-2 10 -9 0 -9 -15 -20 -15 -37 -1 -7 5 -11 3 -11 -6 0 -8 4 -12 8 -10 3 3 12
-2 19 -10 8 -10 9 -15 2 -15 -6 0 -9 -8 -6 -17 5 -15 4 -15 -4 -3 -6 8 -8 18
-6 22 6 10 -10 11 -19 1 -4 -3 -2 -12 5 -20 6 -7 9 -15 7 -17 -2 -2 -14 9 -27
25 -14 17 -18 30 -12 34 6 4 9 3 8 -2 -2 -4 1 -8 7 -8 5 0 9 3 8 7 -2 4 -5 28
-8 54 -9 89 -17 127 -36 180 -17 46 -101 181 -194 316 -82 118 -162 234 -168
245 -5 8 -1 11 13 8 14 -3 20 0 17 8 -3 7 -10 11 -16 9 -7 -1 -10 2 -6 8 5 8
12 7 23 -2 14 -11 15 -10 8 7 -7 20 -7 20 12 0 11 -11 18 -23 15 -27 -2 -5 0
-8 5 -8 5 0 42 -53 81 -117 153 -250 221 -348 293 -424 45 -49 152 -122 162
-112 3 4 6 0 6 -9 0 -16 -34 -51 -42 -43 -2 3 -5 -1 -5 -9 0 -8 5 -14 11 -13
6 1 10 -4 8 -11 -1 -8 2 -11 8 -7 8 5 8 11 1 19 -14 17 20 49 43 40 9 -3 16
-1 16 5 0 6 -6 10 -12 8 -7 -1 -14 5 -14 13 -1 8 -2 19 -3 24 0 5 -9 2 -18 -5
-14 -12 -16 -12 -8 1 17 27 13 50 -9 51 -12 0 4 8 34 17 43 13 67 28 116 79
35 35 84 90 110 123 25 33 51 57 57 53 6 -4 8 0 4 9 -3 9 -2 19 3 24 4 5 31
49 59 99 28 49 51 83 51 75 1 -11 4 -10 15 4 11 14 11 22 2 37 -10 16 -8 22
11 39 12 11 20 17 17 14 -2 -4 0 -15 6 -26 7 -13 7 -23 0 -31 -6 -9 -4 -20 8
-36 l19 -24 0 26 c0 15 -4 24 -9 21 -10 -6 0 25 14 44 5 6 6 12 3 12 -4 0 1
12 12 28 15 21 17 31 9 44 -9 14 -6 23 18 48 16 16 25 30 21 30 -4 0 4 14 18
31 14 17 26 40 26 51 0 12 3 19 6 15 4 -3 3 -19 -1 -34z m-2058 2 c0 -8 -4
-12 -9 -9 -12 7 -23 -25 -12 -36 5 -5 15 -5 24 1 13 9 12 10 -2 5 -10 -3 -18
-1 -18 4 0 13 27 13 34 1 4 -5 -36 -35 -86 -67 -51 -32 -159 -102 -240 -156
-82 -54 -148 -97 -149 -96 -11 42 -8 46 134 142 108 73 315 218 323 225 0 1 1
-6 1 -14z m34 -22 c13 -16 12 -17 -3 -4 -10 7 -18 15 -18 17 0 8 8 3 21 -13z
m2478 13 c-2 -2 -26 -6 -53 -9 -30 -3 -43 -1 -35 4 13 8 97 13 88 5z m36 -16
c3 -6 -1 -7 -9 -4 -18 7 -21 14 -7 14 6 0 13 -4 16 -10z m426 -7 c13 -16 12
-17 -3 -4 -10 7 -18 15 -18 17 0 8 8 3 21 -13z m859 -84 c0 -52 -63 -99 -135
-99 -19 0 -21 6 -21 84 l0 83 60 15 61 14 17 -35 c10 -20 18 -48 18 -62z
m-2019 64 c13 -16 12 -17 -3 -4 -10 7 -18 15 -18 17 0 8 8 3 21 -13z m770 0
c13 -16 12 -17 -3 -4 -10 7 -18 15 -18 17 0 8 8 3 21 -13z m-713 -49 c4 2 8
-10 8 -27 l1 -30 -18 38 c-20 41 -25 62 -8 32 6 -9 13 -16 17 -13z m611 12
c14 -17 4 -69 -12 -59 -6 4 -8 0 -4 -10 3 -9 3 -18 -1 -21 -4 -3 -8 4 -9 14
-1 11 2 22 7 25 5 3 7 13 4 23 -5 14 -4 15 5 2 7 -9 11 -10 11 -3 0 19 -20 26
-26 9 -3 -9 -10 -13 -15 -10 -5 3 -8 0 -7 -8 2 -7 -2 -12 -8 -11 -6 1 -9 -12
-7 -30 2 -30 2 -30 -6 -7 -6 17 -9 20 -10 8 -2 -31 -21 -19 -21 12 0 56 69
102 99 66z m91 -81 c0 -77 -77 -118 -150 -80 -17 9 -30 17 -30 19 0 6 23 1 37
-7 9 -5 11 -3 7 6 -3 8 0 18 7 23 8 5 10 3 4 -6 -5 -9 -4 -11 4 -6 6 4 9 12 6
17 -6 8 9 13 28 10 5 -1 5 4 2 10 -4 6 7 26 25 44 20 20 30 39 25 47 -3 7 3 2
14 -11 14 -16 21 -37 21 -66z m-665 28 c-1 -29 -20 -50 -30 -34 -3 7 -1 10 6
9 15 -3 19 21 7 38 -4 6 -2 11 6 11 7 0 12 -10 11 -24z m1261 12 c-1 -8 -5
-17 -8 -21 -5 -4 -4 16 1 34 3 9 9 -1 7 -13z m-714 -7 c-5 -7 -12 -24 -15 -38
l-4 -25 -2 26 c0 14 4 30 11 37 16 16 23 15 10 0z m-502 -3 c0 -2 -6 -8 -13
-14 -10 -8 -14 -7 -14 2 0 8 6 14 14 14 7 0 13 -1 13 -2z m-8 -49 c-9 -19 -18
-30 -20 -26 -3 8 26 60 34 60 2 0 -4 -15 -14 -34z m-2258 -276 c28 -33 71 -78
98 -101 l48 -40 0 -97 c-1 -88 -3 -100 -25 -124 -13 -16 -28 -28 -34 -28 -14
0 -149 110 -203 166 -62 66 -77 116 -53 179 16 44 80 105 109 105 6 0 33 -27
60 -60z m2439 20 c9 -10 9 -11 -2 -5 -7 4 -36 11 -65 16 l-51 8 53 -3 c29 -2
59 -9 65 -16z m-66 -62 c6 -7 8 -25 6 -40 -3 -21 1 -28 12 -28 10 0 13 5 9 12
-5 8 -2 9 9 5 9 -3 19 -1 23 5 4 7 3 8 -4 4 -7 -4 -12 -2 -12 3 0 6 5 11 11
11 8 0 8 5 -1 18 -7 9 -1 4 14 -11 36 -39 35 -85 -3 -126 -23 -24 -37 -31 -68
-31 -21 0 -47 8 -58 18 -11 9 -18 16 -16 14 2 -1 14 6 25 15 16 14 18 14 11 3
-6 -9 -2 -7 9 5 10 11 22 19 25 18 4 -1 8 7 8 18 1 10 -3 19 -8 19 -6 0 -7 4
-4 10 9 15 15 54 7 46 -4 -4 -8 -12 -8 -17 -4 -30 -6 -32 -14 -14 -8 18 -9 18
-9 2 -1 -10 -6 -15 -11 -12 -6 4 -9 1 -8 -7 2 -7 -2 -12 -8 -11 -6 1 -11 -4
-11 -11 0 -16 19 -15 40 2 9 8 18 9 21 4 7 -11 -18 -24 -51 -28 -34 -4 -48 20
-33 56 21 51 74 77 97 48z m-27 -62 c0 -2 -8 -10 -17 -17 -16 -13 -17 -12 -4
4 13 16 21 21 21 13z m-696 -175 c-2 -3 -12 3 -22 13 -16 17 -16 18 5 5 12 -7
20 -15 17 -18z m1363 -14 c-3 -8 -1 -20 4 -28 6 -10 9 -6 9 15 0 43 10 25 12
-20 0 -21 6 -45 11 -53 14 -16 18 -43 7 -36 -13 8 -23 -14 -25 -59 -1 -23 -6
-50 -11 -61 -6 -11 -10 -38 -9 -60 1 -23 -4 -47 -12 -57 -8 -9 -12 -21 -9 -26
3 -5 -1 -15 -9 -22 -9 -7 -13 -20 -10 -29 2 -9 -2 -38 -9 -66 -8 -27 -15 -41
-15 -29 -1 11 -6 25 -13 32 -7 7 -8 12 -4 12 5 0 2 8 -5 18 -13 15 -12 16 3 3
10 -7 16 -17 13 -21 -3 -5 -1 -11 5 -15 11 -7 14 28 3 39 -11 10 -12 37 -2 30
11 -6 12 8 1 22 -4 5 -5 8 -3 7 7 -4 31 19 31 29 0 7 -5 6 -13 -1 -10 -8 -14
-7 -14 4 0 7 5 13 11 12 5 -1 10 3 11 8 0 6 4 16 9 23 4 7 4 21 0 30 -14 33
-14 44 2 31 17 -14 19 2 2 20 -7 7 -8 12 -3 11 22 -5 36 0 30 10 -4 6 -12 7
-18 4 -7 -4 -9 -3 -4 1 4 5 -1 18 -10 29 -18 21 -18 21 3 3 20 -16 34 -14 34
5 0 5 -4 7 -9 4 -5 -3 -14 0 -20 8 -9 11 -7 13 11 12 20 -1 23 4 24 37 1 33
-1 36 -15 25 -14 -11 -14 -11 -3 4 9 11 10 18 2 23 -8 5 -8 11 -1 19 7 9 5 19
-6 36 -9 13 -11 20 -5 16 7 -4 12 -2 12 3 0 6 3 11 6 11 3 0 4 -6 1 -13z
m-1297 -7 c0 -5 -7 -7 -15 -4 -8 4 -15 8 -15 10 0 2 7 4 15 4 8 0 15 -4 15
-10z m21 -29 c6 10 8 7 6 -8 -1 -17 -4 -19 -14 -11 -7 6 -13 16 -12 22 0 6 3
5 6 -3 5 -11 7 -11 14 0z m-228 -66 c-3 -9 -8 -14 -10 -11 -3 3 -2 9 2 15 9
16 15 13 8 -4z m923 -114 c23 -10 45 -25 50 -32 4 -7 -8 -3 -27 8 -50 31 -99
37 -142 19 -21 -8 -37 -13 -37 -10 0 9 65 33 90 33 14 0 44 -8 66 -18z m-979
-4 c0 -8 -6 -14 -14 -14 -9 0 -10 4 -2 14 6 7 12 13 14 13 1 0 2 -6 2 -13z
m-32 -27 c4 -6 3 -9 -2 -8 -4 1 -34 -8 -66 -20 -32 -12 -63 -22 -70 -21 -7 0
16 11 51 23 35 13 66 27 69 30 9 8 11 8 18 -4z m134 -44 c-2 -2 -13 8 -23 22
l-19 27 24 -22 c12 -12 21 -24 18 -27z m-41 12 c-2 -7 3 -12 10 -10 17 3 15
-15 -4 -22 -8 -3 -12 -2 -9 3 3 5 1 12 -5 16 -6 4 -8 11 -5 16 9 13 15 11 13
-3z m862 -3 c7 -8 10 -24 7 -35 -3 -11 -2 -20 2 -20 13 0 37 36 33 50 -3 10 4
7 18 -6 12 -12 24 -39 27 -61 4 -34 1 -45 -24 -73 -26 -29 -36 -33 -74 -32
-33 2 -50 8 -69 29 -14 15 -17 21 -7 14 12 -10 17 -10 17 -2 0 7 4 10 9 7 5
-3 11 0 14 7 3 8 -5 14 -21 15 -14 1 -29 8 -34 14 -11 20 3 59 30 85 29 27 54
29 72 8z m-1107 -22 c3 -5 -14 -9 -37 -9 -33 -2 -36 0 -16 6 34 11 48 11 53 3z
m227 -3 c0 -5 -9 -14 -20 -20 -14 -7 -20 -7 -20 0 0 5 7 10 15 10 8 0 15 5 15
10 0 6 2 10 5 10 3 0 5 -4 5 -10z m-54 -26 c1 -9 0 -13 -4 -10 -3 4 -7 14 -8
22 -1 9 0 13 4 10 3 -4 7 -14 8 -22z m1534 20 c0 -8 -19 -13 -24 -6 -3 5 1 9
9 9 8 0 15 -2 15 -3z m-1786 -13 c4 -5 -3 -7 -14 -4 -23 6 -26 13 -6 13 8 0
17 -4 20 -9z m206 -26 c0 -2 -7 -1 -17 2 -12 5 -14 3 -8 -8 5 -8 4 -11 0 -6
-5 4 -10 14 -11 22 -2 12 2 12 17 5 10 -6 19 -13 19 -15z m18 0 c-3 -3 -9 2
-12 12 -6 14 -5 15 5 6 7 -7 10 -15 7 -18z m-1024 -57 c-344 -367 -1312 -1328
-1336 -1328 -6 0 74 86 178 191 230 232 214 215 214 227 0 6 -6 12 -12 15 -8
2 46 64 125 144 75 76 137 143 137 148 0 5 -10 19 -22 32 -28 30 -3 32 28 2
l22 -21 40 36 c27 25 42 32 45 24 2 -8 50 31 118 98 296 289 521 503 528 504
2 0 -27 -33 -65 -72z m663 66 c-3 -3 -12 -4 -19 -1 -8 3 -5 6 6 6 11 1 17 -2
13 -5z m183 -48 c0 -2 -8 -10 -17 -17 -16 -13 -17 -12 -4 4 13 16 21 21 21 13z
m40 -2 c0 -8 -19 -13 -24 -6 -3 5 1 9 9 9 8 0 15 -2 15 -3z m1656 -140 c1 -9
-1 -13 -4 -9 -4 4 -7 10 -7 13 0 4 -4 14 -9 22 -7 12 -6 13 4 3 8 -7 15 -20
16 -29z m-44 -73 c25 -20 68 -25 68 -8 0 5 -9 7 -20 4 -11 -3 -22 -2 -24 2 -9
13 69 15 549 16 l480 0 3 -415 c1 -228 0 -425 -3 -437 l-5 -23 -510 0 -510 0
-2 88 c-1 48 -2 102 -3 120 -1 18 3 32 9 32 27 0 67 27 72 48 6 20 12 22 64
22 57 0 89 17 76 39 -4 5 6 11 21 13 22 2 28 8 28 28 0 20 -6 26 -28 28 -22 3
-30 -1 -34 -17 -7 -29 -48 -28 -58 2 -20 59 -22 76 -9 81 16 6 19 42 5 50 -15
10 -19 67 -4 73 15 6 18 39 3 48 -5 3 -10 26 -10 51 l0 44 39 0 c42 0 61 21
40 46 -9 11 -46 14 -155 14 l-144 0 0 28 c0 47 21 55 62 23z m-115 -54 c7 -8
-84 -16 -227 -21 -69 -3 -138 -7 -155 -10 -16 -3 -55 -8 -85 -10 -63 -5 -851
-6 -920 -2 -25 2 -119 7 -210 11 -90 4 -173 9 -183 11 -10 2 -87 4 -170 5
-294 3 -228 14 118 19 410 7 1825 4 1832 -3z m-2641 -264 c-3 -3 -36 -1 -73 5
l-68 11 68 -5 68 -4 -1 77 c-2 114 4 124 7 14 2 -51 2 -96 -1 -98z m-86 82
c-35 -36 -67 -65 -71 -65 -7 0 123 130 131 130 2 0 -25 -29 -60 -65z m1194 34
c12 4 209 8 439 9 l417 2 1 -27 c4 -142 22 -182 27 -60 2 45 4 82 5 82 1 0 63
-1 138 -3 l136 -3 -2 -107 c-2 -59 -3 -111 -4 -116 -2 -16 -12 1 -17 29 -3 20
-1 25 8 19 10 -6 10 -5 0 8 -8 10 -9 19 -3 22 8 5 8 27 1 46 -1 3 -2 9 -1 13
1 5 -3 6 -9 2 -7 -4 -7 -12 -2 -18 4 -7 8 -18 8 -24 -1 -15 -21 -18 -21 -4 0
5 -3 12 -7 16 -11 12 -3 -22 10 -37 9 -11 8 -19 -4 -37 -9 -12 -13 -25 -10
-28 3 -4 6 -1 6 6 0 7 5 9 10 6 18 -11 11 -22 -12 -21 -26 1 -31 25 -8 43 8 6
12 15 7 19 -4 4 -7 2 -7 -4 0 -7 -4 -12 -8 -12 -5 0 -7 13 -6 28 1 20 -5 33
-20 41 -17 11 -19 11 -8 0 13 -14 17 -33 5 -26 -5 3 -8 -12 -9 -34 -1 -35 0
-37 13 -21 13 15 13 15 4 -4 -6 -12 -8 -24 -6 -26 3 -3 -24 -6 -60 -7 -66 -2
-72 2 -67 41 1 3 -4 8 -11 11 -8 3 -14 -5 -15 -24 -2 -19 2 -29 12 -29 7 0 16
-8 18 -18 4 -15 20 -18 129 -20 68 -1 196 -5 284 -9 l160 -8 -115 -6 c-63 -4
-176 -8 -250 -9 -83 -1 -141 -6 -149 -13 -10 -8 -12 -8 -8 -1 3 6 0 11 -8 11
-8 0 -12 -4 -9 -9 6 -9 -871 -5 -976 5 -36 3 -184 8 -330 12 -146 4 -283 10
-305 15 -39 8 -39 8 18 9 42 1 57 5 54 14 -2 6 -13 11 -23 9 -18 -2 -18 -2 -1
8 9 6 17 23 18 38 0 24 1 25 9 7 6 -14 9 -16 10 -5 1 8 5 4 9 -10 5 -14 4 -29
-1 -35 -12 -14 -10 -25 7 -25 8 0 16 8 16 18 1 16 2 16 6 0 4 -17 24 -18 231
-18 l227 0 -3 141 c-4 134 -3 141 14 131 10 -5 27 -7 38 -3z m-96 -111 c-3
-99 -5 -111 -21 -114 -11 -1 -16 0 -13 3 3 4 0 13 -7 21 -9 13 -9 14 1 8 10
-6 14 0 14 24 0 3 -2 16 -6 30 -5 20 -3 20 8 -5 l14 -30 -1 37 c-1 23 -4 33
-9 25 -6 -9 -8 -8 -8 4 0 8 5 20 11 26 8 8 8 13 -1 18 -8 5 -8 10 0 20 8 10 8
15 -2 21 -19 12 -68 14 -68 3 0 -5 6 -8 13 -6 7 1 12 -7 11 -20 -1 -13 3 -20
9 -16 6 4 7 1 2 -7 -5 -8 -4 -11 1 -7 6 3 10 -18 10 -51 1 -54 0 -56 -10 -24
-11 31 -12 32 -31 15 -19 -18 -19 -18 -1 4 12 15 16 28 11 40 -5 10 -9 21 -9
26 -1 10 -21 9 -21 -2 0 -5 -2 -12 -5 -15 -4 -3 -6 5 -6 19 0 13 5 23 11 22 5
-1 9 8 7 21 -3 20 1 22 48 22 l51 0 -3 -112z m1383 101 c24 1 26 -2 26 -46 0
-38 -1 -42 -6 -18 -3 17 -11 31 -17 32 -17 3 -26 -57 -12 -75 9 -11 9 -14 1
-9 -14 9 -45 -32 -36 -46 3 -6 1 -7 -5 -3 -7 4 -12 1 -12 -8 0 -24 4 -31 15
-28 5 2 6 0 2 -4 -11 -11 -38 -14 -31 -3 3 5 -1 9 -8 9 -9 0 -10 2 -1 8 13 9
16 25 13 77 l-3 40 -7 -45 c-6 -35 -7 -26 -7 43 l1 89 30 -7 c17 -4 43 -7 57
-6z m-1401 -18 c2 -1 -1 -6 -8 -13 -8 -8 -8 -15 -1 -24 7 -8 6 -14 -3 -20 -7
-4 -10 -4 -6 1 4 4 2 15 -4 23 -18 21 -18 40 1 37 9 -2 18 -4 21 -4z m1407
-66 c0 -8 -4 -12 -9 -9 -5 3 -6 10 -3 15 9 13 12 11 12 -6z m-1473 -4 c3 -5
-2 -15 -12 -22 -15 -12 -16 -12 -5 2 7 9 10 19 6 22 -3 4 -4 7 0 7 3 0 8 -4
11 -9z m-1061 -65 c-4 -17 -10 -22 -24 -19 -28 8 -25 43 5 43 19 0 22 -4 19
-24z m2319 -8 c-8 -8 -9 -4 -5 13 4 13 8 18 11 10 2 -7 -1 -18 -6 -23z m-2240
15 c-15 -3 -22 -10 -18 -19 3 -8 1 -14 -4 -14 -6 0 -10 9 -10 20 0 15 6 20 28
19 24 -2 25 -2 4 -6z m1004 -19 c1 -9 0 -13 -4 -10 -3 4 -7 14 -8 22 -1 9 0
13 4 10 3 -4 7 -14 8 -22z m-999 -16 c-3 -8 -6 -5 -6 6 -1 11 2 17 5 13 3 -3
4 -12 1 -19z m-62 -26 l120 -17 0 -50 c0 -44 -2 -50 -20 -48 -11 2 -37 0 -58
-3 -32 -5 -38 -9 -35 -27 2 -18 11 -23 46 -25 l42 -3 0 -128 0 -129 -352 -4
c-194 -3 -355 -3 -357 -1 -2 1 97 104 220 227 170 169 230 224 249 224 14 0
79 -7 145 -16z m1073 -7 c-3 -3 -9 2 -12 12 -6 14 -5 15 5 6 7 -7 10 -15 7
-18z m1281 -119 c-23 -20 -948 -29 -1359 -13 -118 5 -217 10 -219 13 -2 2 353
4 789 4 436 0 791 -2 789 -4z m-835 -144 c-6 -4 -10 -15 -8 -25 1 -9 -2 -15
-7 -11 -16 10 -10 44 9 44 10 0 13 -3 6 -8z m250 -26 c-2 -31 -19 -76 -30 -76
-2 0 0 9 6 21 7 11 9 23 7 26 -5 5 -31 -35 -32 -49 0 -3 -3 -9 -7 -13 -3 -4
-5 1 -4 12 2 10 -2 25 -8 33 -10 13 -9 13 7 1 11 -9 17 -10 17 -2 0 6 -7 14
-16 18 -13 5 -13 7 -2 14 13 9 12 9 -19 9 -5 0 -8 -5 -8 -10 0 -6 -6 -14 -13
-19 -8 -5 -13 -10 -11 -12 1 -2 -1 -15 -5 -29 -5 -14 -8 -29 -7 -33 1 -5 -4
-5 -10 -2 -8 5 -8 10 0 18 6 6 11 18 11 27 -1 12 -3 12 -11 -3 -6 -9 -15 -14
-21 -11 -7 5 -9 1 -5 -9 4 -10 2 -16 -6 -14 -7 1 -10 -5 -9 -13 2 -8 0 -11 -5
-7 -4 5 -8 14 -8 20 -1 7 -5 11 -10 10 -6 -1 -11 28 -13 63 l-3 64 108 0 108
0 -1 -34z m88 27 c-6 -3 -10 -9 -7 -13 3 -5 1 -12 -5 -15 -6 -4 -10 -3 -9 2 3
20 -2 27 -11 13 -8 -13 -10 -13 -10 1 0 11 9 16 28 16 15 0 21 -2 14 -4z
m-364 -102 c0 -3 0 -32 1 -63 l1 -58 128 0 c72 0 133 -5 142 -11 12 -8 10 -9
-9 -4 -17 5 -22 4 -19 -6 3 -10 32 -14 109 -15 300 -5 684 -15 686 -18 15 -14
-1673 -26 -1742 -12 -11 3 -83 5 -159 5 -77 1 -137 4 -133 7 5 5 113 8 455 12
115 2 122 3 122 22 0 19 7 20 190 20 l190 0 1 53 c1 28 2 59 2 68 0 11 6 15
18 12 10 -3 18 -8 17 -12z m-1481 -123 c-3 -7 -5 -2 -5 12 0 14 2 19 5 13 2
-7 2 -19 0 -25z m43 12 c0 -11 -2 -20 -4 -20 -2 0 -6 9 -9 20 -3 11 -1 20 4
20 5 0 9 -9 9 -20z m4133 -20 c-4 -14 0 -20 10 -20 9 0 18 10 20 23 4 19 4 18
6 -5 1 -24 -3 -28 -24 -28 -20 0 -25 5 -25 25 0 14 4 25 9 25 5 0 7 -9 4 -20z
m110 -10 c-3 -11 -7 -20 -9 -20 -2 0 -4 9 -4 20 0 11 4 20 9 20 5 0 7 -9 4
-20z m94 -22 c-3 -7 -5 -2 -5 12 0 14 2 19 5 13 2 -7 2 -19 0 -25z m33 7 c0
-14 -2 -25 -4 -25 -2 0 -6 11 -8 25 -3 14 -1 25 3 25 5 0 9 -11 9 -25z m89
-12 c-2 -24 -2 -25 -6 -5 -5 26 -20 29 -26 5 -4 -14 -5 -12 -6 5 -1 16 5 22
19 22 15 0 20 -6 19 -27z m89 -11 c3 -17 -2 -22 -17 -22 -16 0 -21 6 -21 26 0
33 33 30 38 -4z m-4535 11 c-13 -2 -35 -2 -50 0 -16 2 -5 4 22 4 28 0 40 -2
28 -4z m4616 -30 c-1 -22 -2 -23 -6 -8 -3 11 -10 23 -17 27 -7 5 -5 8 7 8 12
0 17 -7 16 -27z m-617 -21 c-7 -2 -12 -8 -12 -14 0 -7 5 -7 13 1 8 6 17 7 22
3 4 -4 3 3 -4 15 -14 28 -14 40 0 26 6 -6 18 -9 25 -6 16 6 19 -13 4 -22 -6
-4 -8 -10 -5 -14 7 -13 -64 -73 -77 -65 -7 5 -8 3 -3 -6 6 -10 3 -12 -13 -8
-12 4 -20 2 -17 -2 6 -9 -36 -11 -587 -17 -407 -4 -408 -4 -408 16 0 25 -25
24 429 22 189 -1 361 -5 382 -10 28 -6 39 -6 39 3 0 7 3 7 8 1 4 -5 31 -10 60
-10 45 1 57 5 73 25 10 14 22 34 25 45 4 11 13 28 22 38 15 17 16 17 25 0 7
-12 7 -18 -1 -21z m682 -4 c7 -5 5 -8 -6 -8 -13 0 -18 7 -17 28 1 21 2 22 6 7
3 -11 10 -23 17 -27z m-543 15 c13 -17 13 -17 -6 -3 -11 8 -22 16 -24 17 -2 2
0 3 6 3 6 0 17 -8 24 -17z m142 0 l-43 -4 -2 -57 -2 -57 -3 49 c-6 69 -1 76
49 74 l43 -1 -42 -4z m472 -3 c3 -6 -1 -7 -9 -4 -18 7 -21 14 -7 14 6 0 13 -4
16 -10z m-292 -17 c-7 -2 -19 -2 -25 0 -7 3 -2 5 12 5 14 0 19 -2 13 -5z m349
-18 c3 -14 1 -25 -3 -25 -5 0 -9 11 -9 25 0 14 2 25 4 25 2 0 6 -11 8 -25z
m-2702 6 c-195 -10 -931 -11 -926 -2 3 5 241 8 528 8 288 0 467 -3 398 -6z
m2645 -9 c-3 -3 -11 0 -18 7 -9 10 -8 11 6 5 10 -3 15 -9 12 -12z m-4708 -14
c-3 -8 -6 -5 -6 6 -1 11 2 17 5 13 3 -3 4 -12 1 -19z m4540 16 c-3 -3 -12 -4
-19 -1 -8 3 -5 6 6 6 11 1 17 -2 13 -5z m291 -29 c0 -13 -4 -22 -9 -20 -9 6
-8 45 2 45 4 0 7 -11 7 -25z m49 -32 c-3 -10 -5 -4 -5 12 0 17 2 24 5 18 2 -7
2 -21 0 -30z m-4790 -235 c-1 -46 -3 -9 -3 82 0 91 2 128 3 83 2 -46 2 -120 0
-165z m4830 205 c-3 -10 -5 -4 -5 12 0 17 2 24 5 18 2 -7 2 -21 0 -30z m-1040
-30 c-3 -10 -5 -4 -5 12 0 17 2 24 5 18 2 -7 2 -21 0 -30z m1048 -23 c10 -11
16 -20 13 -20 -3 0 -13 9 -23 20 -10 11 -16 20 -13 20 3 0 13 -9 23 -20z
m-838 -92 c-2 -13 -4 -3 -4 22 0 25 2 35 4 23 2 -13 2 -33 0 -45z m90 -110
c-2 -18 -4 -4 -4 32 0 36 2 50 4 33 2 -18 2 -48 0 -65z m-90 60 c-3 -8 -6 -5
-6 6 -1 11 2 17 5 13 3 -3 4 -12 1 -19z m-2597 -28 l0 -39 98 -4 c53 -1 -40
-3 -208 -3 -168 0 -218 2 -112 3 l192 3 1 33 c1 17 1 35 0 40 0 4 6 7 14 7 11
0 15 -11 15 -40z m1407 -37 c-2 -16 -4 -3 -4 27 0 30 2 43 4 28 2 -16 2 -40 0
-55z m302 30 c-1 -53 -6 -49 -11 10 -2 20 0 37 4 37 4 0 8 -21 7 -47z m358
-20 c-2 -16 -4 -5 -4 22 0 28 2 40 4 28 2 -13 2 -35 0 -50z m1138 -23 c-3 -5
-13 -10 -21 -10 -8 0 -12 5 -9 10 3 6 13 10 21 10 8 0 12 -4 9 -10z m-1652 -7
c-7 -2 -19 -2 -25 0 -7 3 -2 5 12 5 14 0 19 -2 13 -5z m1587 -8 c0 -8 -9 -15
-20 -15 -22 0 -27 15 -7 23 21 9 27 7 27 -8z m-1447 -2 c-13 -2 -35 -2 -50 0
-16 2 -5 4 22 4 28 0 40 -2 28 -4z m417 -9 c0 -2 -46 -3 -102 -2 l-103 2 80 5
c75 6 125 3 125 -5z m850 6 c-12 -8 -11 -10 8 -10 27 0 29 -25 4 -39 -13 -7
-23 -6 -32 2 -12 10 -12 9 -2 -4 7 -9 22 -15 35 -13 105 16 216 36 232 40 20
6 20 6 0 -9 -11 -8 -24 -13 -29 -10 -5 4 -6 1 -2 -6 4 -6 11 -9 16 -6 5 3 12
0 16 -6 4 -7 3 -9 -2 -6 -6 3 -16 2 -24 -4 -12 -7 -11 -9 5 -10 l20 0 -20 -9
c-14 -6 -16 -9 -5 -10 8 -2 18 -2 23 -1 4 1 2 -8 -5 -19 -11 -17 -10 -22 2
-31 16 -10 14 -10 -70 5 -71 13 -120 14 -127 2 -3 -6 -3 -8 1 -4 4 3 21 2 37
-4 23 -8 29 -16 29 -39 0 -24 -4 -29 -23 -29 -13 0 -28 5 -35 10 -8 7 -9 7 -3
-1 5 -7 61 -25 123 -41 124 -32 260 -92 297 -132 24 -25 24 -26 6 -47 -42 -46
-212 -110 -415 -157 -67 -16 -77 -20 -47 -21 39 -1 44 -9 27 -42 -13 -23 -29
-24 -45 -2 -11 15 -14 14 -33 -5 -26 -26 -41 -28 -57 -5 -11 15 -14 15 -31 -5
-19 -22 -64 -30 -64 -12 0 6 -9 10 -20 10 -11 0 -20 -7 -20 -15 0 -17 -45 -21
-55 -5 -9 15 -45 12 -51 -5 -7 -17 -54 -21 -54 -5 0 6 -11 10 -25 10 -14 0
-25 -4 -25 -9 0 -18 -41 -23 -53 -7 -11 14 -15 14 -41 1 -32 -17 -66 -20 -66
-5 0 6 -11 10 -25 10 -14 0 -25 -4 -25 -10 0 -14 -47 -12 -57 3 -4 6 -6 22 -4
35 l2 22 -448 0 c-336 0 -452 3 -461 12 -9 9 -12 74 -12 230 l0 218 95 0 95 0
0 -223 0 -224 235 0 c172 -1 233 2 228 11 -4 7 -1 6 9 -1 17 -14 28 -7 27 16
0 12 -3 11 -9 -4 -8 -18 -9 -18 -9 -2 -1 10 -5 15 -11 12 -5 -3 -7 0 -4 8 2 7
0 27 -6 43 -6 16 -8 25 -3 21 4 -5 13 -23 20 -40 8 -23 12 -26 12 -12 1 11 -6
33 -14 48 -8 15 -10 25 -5 22 6 -4 10 1 10 10 0 10 -5 14 -12 9 -10 -6 -10 -4
-1 6 10 11 9 18 -7 35 -16 17 -17 22 -6 22 8 0 13 -4 10 -8 -2 -4 0 -10 6 -14
6 -4 10 5 10 20 0 16 -4 24 -11 19 -8 -5 -8 -1 0 14 17 32 13 37 -11 16 -21
-18 -22 -18 -8 0 19 24 20 67 2 88 -9 11 -10 18 -2 23 6 3 9 3 8 -2 -2 -4 1
-9 7 -10 8 -3 10 10 6 48 0 5 -5 8 -9 5 -5 -3 -9 1 -9 8 0 9 11 13 29 12 15
-1 28 1 28 6 0 4 -21 8 -47 8 -25 0 -44 2 -41 5 3 3 70 8 149 12 79 3 145 7
147 8 2 1 4 30 5 64 l1 61 59 0 c32 0 56 4 53 8 -2 4 6 9 20 10 13 1 24 -3 24
-8 0 -16 50 -11 56 5 4 8 15 15 25 15 10 0 19 -7 19 -15 0 -8 9 -15 19 -15 28
0 52 11 45 21 -3 5 4 9 15 9 12 0 21 -4 21 -10 0 -5 18 -10 40 -10 22 0 40 5
40 10 0 14 27 13 32 -2 3 -7 14 -9 31 -4 15 3 25 11 22 16 -3 6 3 10 14 10 11
0 23 -4 26 -10 10 -16 45 -12 45 5 0 8 9 15 21 15 11 0 17 -4 14 -10 -4 -6 7
-10 24 -10 21 0 31 5 31 15 0 8 8 15 18 15 14 0 15 -2 2 -10z m106 -19 c-10
-16 -46 -13 -46 3 0 16 30 27 44 15 4 -4 5 -12 2 -18z m-3386 1 c0 -5 -7 -9
-15 -9 -8 0 -15 4 -15 9 0 4 7 8 15 8 8 0 15 -4 15 -8z m90 -2 c0 -5 -7 -10
-15 -10 -8 0 -15 5 -15 10 0 6 7 10 15 10 8 0 15 -4 15 -10z m100 0 c0 -5 -9
-10 -20 -10 -11 0 -20 5 -20 10 0 6 9 10 20 10 11 0 20 -4 20 -10z m90 0 c0
-5 -9 -10 -20 -10 -11 0 -20 5 -20 10 0 6 9 10 20 10 11 0 20 -4 20 -10z m100
0 c0 -5 -11 -10 -25 -10 -14 0 -25 5 -25 10 0 6 11 10 25 10 14 0 25 -4 25
-10z m90 0 c0 -5 -9 -10 -20 -10 -11 0 -20 5 -20 10 0 6 9 10 20 10 11 0 20
-4 20 -10z m100 0 c0 -5 -9 -10 -20 -10 -11 0 -20 5 -20 10 0 6 9 10 20 10 11
0 20 -4 20 -10z m90 0 c0 -5 -9 -10 -20 -10 -11 0 -20 5 -20 10 0 6 9 10 20
10 11 0 20 -4 20 -10z m90 0 c0 -5 -9 -10 -20 -10 -11 0 -20 5 -20 10 0 6 9
10 20 10 11 0 20 -4 20 -10z m90 -2 c0 -4 -7 -8 -15 -8 -8 0 -15 4 -15 8 0 5
7 9 15 9 8 0 15 -4 15 -9z m90 0 c0 -4 -9 -8 -20 -8 -11 0 -20 4 -20 8 0 4 9
8 20 8 11 0 20 -4 20 -8z m83 -5 c-7 -2 -19 -2 -25 0 -7 3 -2 5 12 5 14 0 19
-2 13 -5z m94 1 c-3 -3 -12 -4 -19 -1 -8 3 -5 6 6 6 11 1 17 -2 13 -5z m-3467
-14 c0 -5 -5 -10 -11 -10 -5 0 -7 5 -4 10 3 6 8 10 11 10 2 0 4 -4 4 -10z m95
-5 c0 -5 -10 -11 -22 -13 -16 -2 -23 2 -23 13 0 11 7 15 23 13 12 -2 22 -7 22
-13z m95 -5 c0 -6 11 -8 28 -4 25 7 69 7 361 1 l115 -3 0 -62 1 -62 85 -1
c212 -4 487 -15 397 -17 -58 -1 -96 -6 -92 -11 3 -5 1 -12 -4 -15 -10 -7 -9
-25 2 -43 4 -6 2 -15 -5 -19 -7 -4 -10 -3 -5 1 4 5 0 17 -10 27 -9 10 -13 18
-8 18 4 0 1 8 -6 18 -13 15 -12 16 4 3 9 -7 17 -11 17 -7 0 3 0 9 0 14 0 4
-20 7 -44 7 -25 0 -44 -2 -44 -5 2 -21 -4 -30 -14 -24 -10 6 -10 5 -1 -7 10
-12 10 -18 0 -29 -10 -12 -9 -12 5 -1 15 11 19 11 24 -4 4 -10 2 -27 -5 -37
-7 -12 -8 -17 -2 -13 6 3 11 2 11 -3 0 -16 -13 -22 -25 -12 -8 7 -12 5 -12 -4
0 -7 9 -13 20 -12 11 1 22 -4 24 -10 2 -7 -7 -10 -23 -8 -19 2 -24 0 -15 -9 7
-7 7 -14 0 -23 -7 -8 -7 -14 1 -19 5 -3 10 -11 10 -16 0 -6 -4 -8 -9 -5 -13 8
-7 -22 6 -35 14 -14 5 -41 -11 -32 -6 3 -8 3 -4 -2 4 -4 3 -14 -3 -21 -7 -8
-6 -14 2 -20 7 -4 9 -3 5 4 -3 6 -2 13 4 17 5 3 11 1 11 -4 1 -6 2 -17 3 -23
4 -21 -6 -31 -15 -17 -5 8 -9 9 -9 3 0 -6 6 -17 14 -24 8 -6 12 -19 9 -28 -4
-13 -2 -12 11 3 14 15 16 16 13 3 -6 -17 8 -19 32 -4 10 6 12 5 7 -2 -4 -7 -2
-12 3 -12 14 0 14 27 2 35 -6 3 -14 -3 -20 -12 -14 -24 -13 -28 -16 197 -1
117 1 187 7 175 6 -15 7 -13 4 10 -5 30 -5 29 10 -5 9 -19 16 -37 16 -40 0 -3
4 -11 10 -18 9 -10 14 -10 27 0 14 11 14 11 4 -3 -7 -9 -11 -19 -8 -22 3 -4 2
-5 -2 -2 -11 8 -32 -16 -27 -30 3 -7 1 -16 -5 -20 -6 -3 -11 -15 -11 -26 0
-11 5 -17 10 -14 6 4 8 9 6 13 -2 4 2 16 10 27 14 19 14 19 11 -3 -2 -12 -9
-28 -15 -34 -24 -24 -11 -31 16 -7 l27 24 -23 -26 c-12 -14 -19 -29 -15 -33 9
-9 13 -36 5 -33 -4 1 -7 -3 -7 -8 0 -6 2 -9 5 -8 4 1 6 -9 6 -22 0 -13 -3 -22
-7 -19 -4 2 -12 -2 -18 -10 -8 -10 -8 -16 3 -25 9 -7 17 -8 20 -2 3 5 0 11 -6
14 -7 3 -3 4 9 4 22 -1 22 -2 4 -22 -9 -11 -16 -28 -14 -37 4 -15 23 -17 198
-15 127 1 191 5 188 12 -3 5 0 5 7 -2 15 -14 43 -6 33 10 -3 5 -2 7 4 4 12 -7
11 152 -2 172 -5 9 -4 12 3 7 5 -3 12 -1 14 5 2 6 4 -37 3 -95 0 -83 -4 -109
-15 -116 -9 -6 -184 -10 -412 -10 -219 0 -398 -2 -398 -5 0 -3 5 -14 12 -24 6
-10 8 -26 5 -35 -8 -20 -46 -21 -53 -1 -7 17 -54 21 -54 5 0 -5 -13 -10 -30
-10 -16 0 -30 5 -30 10 0 6 -11 10 -25 10 -14 0 -25 -4 -25 -10 0 -16 -47 -12
-54 5 -7 20 -42 19 -50 -1 -4 -11 -13 -13 -28 -8 -13 3 -24 11 -26 15 -5 12
-52 11 -52 -1 0 -18 -39 -11 -50 9 -6 12 -10 133 -10 324 l0 304 -40 -4 c-31
-3 -40 -1 -40 12 0 9 9 15 25 15 14 0 25 -5 25 -10z m-143 -46 c-3 -3 -12 -4
-19 -1 -8 3 -5 6 6 6 11 1 17 -2 13 -5z m40 0 c-3 -3 -12 -4 -19 -1 -8 3 -5 6
6 6 11 1 17 -2 13 -5z m79 -17 c10 4 14 -4 14 -31 0 -22 -5 -36 -12 -36 -23 0
-33 15 -33 47 0 19 4 28 9 23 4 -4 15 -6 22 -3z m3980 -30 c-4 -32 -46 -33
-46 -1 0 13 7 24 18 27 25 5 32 -1 28 -26z m-4052 7 c3 -9 6 -21 6 -28 0 -14
-49 -20 -51 -6 -1 6 -2 16 -3 23 -1 6 5 15 14 19 23 10 27 9 34 -8z m3841 6
c-3 -5 -13 -10 -21 -10 -8 0 -12 5 -9 10 3 6 13 10 21 10 8 0 12 -4 9 -10z
m115 -15 c0 -18 -5 -25 -20 -25 -12 0 -20 7 -20 16 0 14 2 15 18 3 14 -11 13
-10 -2 9 -19 22 -19 22 2 22 17 0 22 -6 22 -25z m-110 -9 c0 -12 -13 -14 -40
-6 -4 1 24 16 38 19 1 1 2 -5 2 -13z m1864 -22 c24 -9 21 -54 -4 -54 -16 0
-20 7 -20 30 0 32 1 33 24 24z m-5628 -220 c-3 -114 -9 -211 -13 -217 -13 -22
-344 25 -503 72 -137 40 -266 107 -258 134 8 24 127 94 204 120 124 40 416 93
538 96 l39 1 -7 -206z m3764 -12 c0 -137 -4 -222 -10 -228 -13 -13 -1087 -6
-1112 8 -16 8 -18 29 -18 213 0 113 1 205 3 205 1 0 247 3 547 7 300 3 547 7
549 9 2 2 13 4 23 4 17 0 18 -13 18 -218z m304 210 c3 -5 -1 -9 -9 -9 -8 0
-12 4 -9 9 3 4 7 8 9 8 2 0 6 -4 9 -8z m218 1 c-40 -2 -103 -2 -140 0 -37 2
-4 3 73 3 77 0 107 -2 67 -3z m1416 -14 c-10 -7 -11 -9 0 -9 7 0 10 -4 7 -10
-12 -19 -32 -10 -29 13 1 12 3 23 3 24 1 1 8 0 17 -4 13 -5 13 -7 2 -14z
m-4365 4 c-7 -2 -19 -2 -25 0 -7 3 -2 5 12 5 14 0 19 -2 13 -5z m461 -2 c3 -5
-2 -15 -12 -22 -15 -13 -16 -12 -3 3 12 17 2 18 -168 16 l-181 -2 0 -207 c0
-189 2 -208 18 -212 15 -4 15 -5 0 -6 -9 0 -20 3 -23 9 -3 5 -7 104 -8 220
l-2 210 187 0 c103 0 189 -4 192 -9z m739 -418 c-13 -10 -135 -13 -532 -13
-283 0 -512 3 -508 6 3 3 104 7 224 7 l218 2 0 32 c0 18 6 38 12 44 10 10 9
17 -5 33 -17 21 -17 21 6 2 25 -22 30 -11 7 14 -19 22 -27 58 -14 66 7 4 7 10
0 18 -7 8 -6 17 1 26 8 12 9 12 4 -2 -3 -10 -1 -20 5 -24 6 -3 6 -10 1 -17
-11 -14 -8 -45 6 -59 14 -14 4 134 -10 158 -4 5 -3 16 3 24 12 21 11 33 -3 24
-7 -4 -8 -3 -4 5 4 6 12 9 17 5 6 -3 8 5 5 21 -4 23 -3 25 11 13 14 -11 15
-11 11 2 -2 8 -19 16 -37 18 -22 2 -31 0 -26 -7 3 -6 10 -9 15 -6 13 8 5 -24
-8 -35 -9 -7 -9 -7 -2 2 7 8 4 19 -10 33 l-21 22 56 1 c47 0 55 -3 51 -17 -3
-9 -1 -23 5 -31 8 -12 10 -12 8 5 -3 38 1 43 37 43 26 0 34 -4 30 -14 -3 -7
-2 -15 3 -18 8 -5 6 -53 -3 -92 -5 -17 -3 -23 4 -19 5 3 10 18 10 33 0 20 3
23 9 13 6 -9 6 -22 1 -32 -5 -9 -6 -20 -2 -24 4 -5 2 -6 -3 -2 -7 4 -10 -27
-9 -91 0 -57 -4 -103 -10 -111 -9 -12 -8 -13 2 -7 11 7 12 4 4 -11 -8 -14 -21
-19 -49 -18 -21 1 -41 -4 -45 -9 -5 -7 -8 -6 -8 2 0 7 -4 10 -10 7 -24 -15 -5
-20 63 -19 39 1 74 3 77 4 3 1 8 2 12 1 4 0 5 7 2 17 -4 11 1 9 16 -8 12 -14
19 -19 15 -12 -4 7 -8 26 -10 43 -4 26 -2 29 10 19 7 -6 12 -20 10 -30 -2 -10
2 -23 9 -29 9 -8 12 6 11 57 0 38 4 67 10 67 6 0 9 -3 7 -8 -1 -4 1 -6 5 -5 5
2 9 -1 11 -7 1 -5 -2 -11 -8 -11 -21 -3 -22 -4 -13 -16 5 -7 8 -28 7 -46 -1
-19 0 -31 3 -28 3 3 6 22 7 43 1 22 7 37 13 36 6 -1 10 5 8 15 -1 9 0 22 4 27
3 6 6 15 6 20 0 6 5 10 12 10 6 0 14 3 18 6 3 4 -2 6 -12 5 -10 0 -19 4 -19 9
-1 6 1 9 5 8 4 -1 8 3 8 10 0 7 4 21 8 32 4 11 3 15 -2 10 -10 -13 -34 -13
-30 0 1 6 5 9 8 8 3 -1 5 8 5 20 -1 12 2 28 7 35 7 8 6 17 -1 24 -9 9 -8 16 3
28 10 11 11 20 4 30 -9 13 -10 12 -6 -2 7 -19 -15 -42 -29 -30 -4 4 -3 0 4 -9
6 -9 8 -20 4 -24 -4 -5 -1 -5 6 -1 14 8 17 -10 3 -18 -12 -8 -33 19 -23 29 4
5 1 5 -5 1 -16 -9 -16 -1 -2 25 5 11 14 17 18 15 4 -3 8 1 8 8 0 8 -11 12 -26
11 -14 -1 -33 2 -42 6 -13 6 -16 3 -14 -14 2 -35 -9 -45 -15 -12 -4 23 -10 30
-28 29 -12 -1 -22 2 -22 7 0 5 100 10 223 11 l222 3 3 -205 c2 -184 1 -206
-15 -217z m-1707 388 c-1 -22 -4 -27 -13 -19 -9 7 -10 16 -2 29 13 26 16 24
15 -10z m1034 23 c0 -8 -19 -13 -24 -6 -3 5 1 9 9 9 8 0 15 -2 15 -3z m-525
-98 c0 -52 -2 -93 -5 -91 -5 3 -5 173 -1 183 5 10 6 -10 6 -92z m532 69 c0 -8
-4 -12 -9 -9 -5 3 -6 10 -3 15 9 13 12 11 12 -6z m275 -20 c3 -16 4 -34 0 -39
-7 -11 -14 -52 -13 -79 0 -9 -3 -16 -7 -13 -4 2 -8 -8 -8 -22 -1 -15 1 -21 3
-14 3 6 9 10 14 6 5 -3 5 -13 1 -22 -5 -9 -8 -32 -7 -49 2 -18 0 -31 -4 -29
-3 2 -6 -11 -6 -29 -1 -46 10 -37 14 12 2 23 14 8 17 -22 1 -14 -1 -23 -6 -20
-5 3 -13 -2 -18 -12 -5 -9 -17 -18 -26 -19 -15 -2 -15 0 -4 13 9 11 13 50 14
117 2 97 7 142 19 154 3 3 -2 16 -11 30 -8 13 -13 29 -11 37 3 7 1 17 -5 23
-6 6 -2 9 14 8 17 -1 25 -9 30 -31z m70 -3 c-14 -21 -13 -25 13 -52 27 -28 28
-31 11 -48 -14 -16 -14 -21 -3 -30 8 -7 17 -9 20 -5 4 3 7 2 7 -4 0 -6 -8 -17
-17 -24 -14 -12 -16 -12 -8 0 5 10 4 12 -4 7 -9 -6 -9 -11 1 -23 29 -35 13
-66 -18 -32 -18 20 -18 22 -1 50 9 17 13 27 8 24 -11 -6 -20 15 -13 32 2 7 9
10 16 6 7 -4 7 -1 -1 9 -7 8 -9 19 -5 23 4 5 1 4 -7 0 -11 -6 -13 -4 -8 8 3 9
3 19 -2 21 -10 7 -11 -26 0 -39 4 -6 4 -17 -1 -25 -6 -8 -10 -12 -10 -7 0 15
-2 22 -10 38 -6 10 -3 26 6 44 11 22 12 31 3 39 -9 8 -10 8 -6 0 4 -7 1 -24
-7 -39 -8 -15 -12 -34 -9 -43 4 -9 2 -13 -4 -9 -6 4 -10 -5 -9 -21 1 -15 -3
-33 -8 -39 -8 -13 -7 -14 14 -17 6 0 9 -5 8 -11 -2 -5 -6 -9 -10 -8 -3 1 -5
-5 -3 -15 1 -9 -2 -22 -7 -29 -5 -7 -5 -14 2 -18 6 -3 8 -10 5 -15 -3 -5 0
-12 7 -16 7 -4 10 -4 6 1 -4 4 -2 15 5 23 8 11 8 14 0 9 -6 -4 -14 -3 -17 2
-4 5 -2 12 3 15 14 9 25 -14 27 -53 l1 -34 -28 31 c-27 30 -33 71 -15 101 4 5
2 12 -3 16 -6 3 -8 22 -4 43 3 20 6 44 7 52 1 8 9 26 16 40 8 14 13 30 12 36
-1 7 10 11 27 10 27 -1 28 -2 13 -24z m-401 5 c-6 -8 -7 -18 -3 -22 4 -5 1 -5
-6 -1 -10 6 -10 11 -1 22 6 8 14 14 16 14 3 0 0 -6 -6 -13z m90 -4 c13 -16 12
-17 -3 -4 -17 13 -22 21 -14 21 2 0 10 -8 17 -17z m-31 -7 c0 -2 -8 -10 -17
-17 -16 -13 -17 -12 -4 4 13 16 21 21 21 13z m-44 -31 c-1 -8 -5 -17 -8 -21
-5 -4 -4 16 1 34 3 9 9 -1 7 -13z m82 5 c-2 -5 2 -9 7 -7 6 1 9 6 7 10 -1 5 2
6 8 2 8 -5 8 -11 1 -19 -6 -7 -8 -16 -4 -20 11 -10 12 -37 2 -30 -5 3 -7 9 -4
13 2 5 -4 16 -15 26 -11 10 -17 22 -14 26 7 12 15 11 12 -1z m-72 -55 c-1 -13
-4 -27 -7 -30 -5 -4 -4 41 0 53 4 10 8 -2 7 -23z m70 6 c-3 -5 1 -14 9 -21 11
-9 12 -16 5 -25 -8 -9 -8 -15 0 -20 8 -5 7 -11 -2 -22 -13 -17 -13 -20 3 -40
7 -7 6 -14 -1 -18 -8 -5 -6 -12 5 -25 13 -15 13 -19 1 -29 -7 -6 -12 -25 -11
-41 1 -16 -1 -28 -5 -25 -11 7 -6 51 8 68 10 11 9 17 -3 27 -11 9 -12 16 -5
25 7 8 7 15 1 19 -10 7 -10 24 2 43 4 6 3 15 -3 18 -8 5 -8 11 0 20 7 9 6 16
-5 25 -13 11 -12 30 1 30 3 0 3 -4 0 -9z m-1879 -48 c-3 -10 -5 -2 -5 17 0 19
2 27 5 18 2 -10 2 -26 0 -35z m2150 41 c-3 -4 2 -18 13 -31 15 -20 17 -29 9
-45 -6 -11 -8 -26 -5 -33 7 -20 -9 -28 -23 -11 -9 10 -8 16 4 26 12 10 13 16
4 26 -6 8 -16 11 -23 7 -7 -4 -6 -1 1 9 7 8 10 18 7 21 -8 7 2 37 12 37 4 0 4
-3 1 -6z m-1356 -41 c4 -75 4 -181 1 -195 -2 -10 -8 -15 -14 -12 -5 4 -5 10 0
17 9 12 8 44 -2 54 -3 3 -1 14 4 23 7 13 5 21 -5 30 -12 10 -13 16 -4 26 9 11
8 18 0 28 -8 10 -9 16 -1 21 6 3 8 11 5 16 -4 5 -1 9 4 9 6 0 11 -8 12 -17z
m1025 -8 c-1 -8 -5 -17 -8 -21 -5 -4 -4 16 1 34 3 9 9 -1 7 -13z m-26 -21 c0
-8 -19 -13 -24 -6 -3 5 1 9 9 9 8 0 15 -2 15 -3z m-2603 -46 c-3 -7 -5 -2 -5
12 0 14 2 19 5 13 2 -7 2 -19 0 -25z m30 -25 c-3 -10 -5 -4 -5 12 0 17 2 24 5
18 2 -7 2 -21 0 -30z m2544 20 c13 -16 12 -17 -3 -4 -17 13 -22 21 -14 21 2 0
10 -8 17 -17z m4136 -30 c-3 -10 -5 -4 -5 12 0 17 2 24 5 18 2 -7 2 -21 0 -30z
m-4062 18 c3 -5 2 -12 -3 -15 -5 -3 -9 1 -9 9 0 17 3 19 12 6z m-2568 -31 c-2
-29 -17 -24 -17 6 0 14 4 23 9 19 6 -3 9 -14 8 -25z m6593 3 c-1 -24 -2 -26
-11 -10 -5 9 -7 22 -4 27 10 17 15 11 15 -17z m-4050 11 c0 -8 -19 -13 -24 -6
-3 5 1 9 9 9 8 0 15 -2 15 -3z m37 -19 c0 -8 -4 -12 -9 -9 -5 3 -6 10 -3 15 9
13 12 11 12 -6z m-2527 -21 c0 -14 -4 -23 -10 -19 -5 3 -10 15 -10 26 0 10 5
19 10 19 6 0 10 -12 10 -26z m2465 17 c3 -5 2 -12 -3 -15 -5 -3 -9 1 -9 9 0
17 3 19 12 6z m89 0 c3 -5 -2 -15 -12 -22 -15 -12 -16 -12 -5 2 7 9 10 19 6
22 -3 4 -4 7 0 7 3 0 8 -4 11 -9z m3936 -16 c0 -14 -4 -25 -8 -25 -4 0 -9 11
-10 25 -1 14 3 25 8 25 6 0 10 -11 10 -25z m-6430 -31 c0 -14 -4 -22 -10 -19
-5 3 -10 17 -10 31 0 14 4 22 10 19 6 -3 10 -17 10 -31z m6380 27 c0 -17 -12
-41 -21 -41 -10 0 -12 33 -2 43 9 10 23 9 23 -2z m-6312 -44 c3 -21 0 -26 -12
-21 -19 7 -22 58 -3 52 6 -3 13 -17 15 -31z m2337 24 c3 -5 2 -12 -3 -15 -5
-3 -9 1 -9 9 0 17 3 19 12 6z m3915 -5 c0 -8 -8 -22 -17 -32 -17 -17 -18 -17
-21 0 -2 9 -1 24 2 32 7 18 36 18 36 0z m-6180 -31 c0 -16 -6 -25 -15 -25 -9
0 -15 9 -15 25 0 16 6 25 15 25 9 0 15 -9 15 -25z m2286 10 c-1 -8 -5 -17 -8
-21 -5 -4 -4 16 1 34 3 9 9 -1 7 -13z m3824 1 c0 -13 -26 -46 -36 -46 -2 0 -4
14 -4 30 0 23 4 30 20 30 11 0 20 -6 20 -14z m-6030 -33 c0 -35 -34 -27 -38 9
-3 22 0 26 17 21 14 -4 21 -14 21 -30z m5953 25 c7 -23 -5 -48 -24 -48 -13 0
-19 7 -19 23 0 13 3 27 7 30 11 11 31 8 36 -5z m-5868 -18 c12 -20 -5 -48 -25
-43 -27 7 -28 53 -1 53 11 0 23 -5 26 -10z m84 -9 c19 -12 4 -51 -20 -51 -14
0 -19 7 -19 30 0 30 13 37 39 21z m85 -7 c9 -3 16 -17 16 -30 0 -19 -5 -24
-24 -24 -24 0 -37 22 -29 48 5 13 14 15 37 6z m114 -36 c3 -24 0 -28 -22 -28
-16 0 -27 7 -31 20 -9 27 2 42 28 38 16 -2 23 -11 25 -30z m1433 -38 c6 0 7 9
4 20 -4 11 -2 20 4 20 6 0 11 -11 11 -25 0 -18 -5 -25 -20 -25 -15 0 -20 6
-19 28 2 23 2 24 6 5 2 -13 9 -23 14 -23z m91 0 c6 0 8 9 5 20 -3 11 -1 20 4
20 5 0 9 -11 9 -25 0 -18 -5 -25 -20 -25 -15 0 -20 6 -19 28 2 23 2 24 6 5 2
-13 9 -23 15 -23z m108 15 c0 -18 -5 -25 -20 -25 -15 0 -20 7 -20 25 0 18 5
25 20 25 15 0 20 -7 20 -25z m100 0 c0 -20 -5 -25 -25 -25 -20 0 -25 5 -25 25
0 20 5 25 25 25 20 0 25 -5 25 -25z m90 0 c0 -18 -5 -25 -20 -25 -15 0 -20 7
-20 25 0 18 5 25 20 25 15 0 20 -7 20 -25z m90 0 c0 -18 -5 -25 -20 -25 -15 0
-20 7 -20 25 0 18 5 25 20 25 15 0 20 -7 20 -25z m100 0 c0 -20 -5 -25 -25
-25 -20 0 -25 5 -25 25 0 20 5 25 25 25 20 0 25 -5 25 -25z m90 0 c0 -18 -5
-25 -19 -25 -11 0 -21 6 -24 13 -7 20 4 37 24 37 14 0 19 -7 19 -25z m90 -1
c0 -20 -4 -25 -22 -22 -32 5 -33 48 -1 48 18 0 23 -5 23 -26z m90 1 c0 -18 -5
-25 -20 -25 -15 0 -20 7 -20 25 0 18 5 25 20 25 15 0 20 -7 20 -25z m90 0 c0
-18 -5 -25 -20 -25 -15 0 -20 7 -20 25 0 18 5 25 20 25 15 0 20 -7 20 -25z
m100 0 c0 -20 -5 -25 -25 -25 -20 0 -25 5 -25 25 0 20 5 25 25 25 20 0 25 -5
25 -25z m90 0 c0 -18 -5 -25 -20 -25 -15 0 -20 7 -20 25 0 18 5 25 20 25 15 0
20 -7 20 -25z m98 0 c1 -21 -3 -25 -23 -25 -20 0 -25 5 -25 25 0 19 5 25 23
25 17 0 23 -6 25 -25z m92 0 c0 -18 -5 -25 -20 -25 -15 0 -20 7 -20 25 0 18 5
25 20 25 15 0 20 -7 20 -25z m90 0 c0 -18 -5 -25 -20 -25 -15 0 -20 7 -20 25
0 18 5 25 20 25 15 0 20 -7 20 -25z m100 0 c0 -20 -5 -25 -25 -25 -20 0 -25 5
-25 25 0 20 5 25 25 25 20 0 25 -5 25 -25z m90 0 c0 -20 -5 -25 -25 -25 -20 0
-25 5 -25 25 0 20 5 25 25 25 20 0 25 -5 25 -25z m90 0 c0 -20 -5 -25 -25 -25
-20 0 -25 5 -25 25 0 20 5 25 25 25 20 0 25 -5 25 -25z m90 0 c0 -20 -5 -25
-25 -25 -20 0 -25 5 -25 25 0 20 5 25 25 25 20 0 25 -5 25 -25z m90 0 c0 -18
-5 -25 -20 -25 -15 0 -20 7 -20 25 0 18 5 25 20 25 15 0 20 -7 20 -25z m100 0
c0 -20 -5 -25 -25 -25 -20 0 -25 5 -25 25 0 20 5 25 25 25 20 0 25 -5 25 -25z
m90 0 c0 -20 -5 -25 -25 -25 -20 0 -25 5 -25 25 0 20 5 25 25 25 20 0 25 -5
25 -25z m90 0 c0 -20 -5 -25 -25 -25 -18 0 -25 5 -25 18 0 24 8 32 32 32 13 0
18 -7 18 -25z m98 -2 c-2 -20 -9 -29 -25 -31 -20 -3 -23 1 -23 27 0 27 4 31
26 31 22 0 25 -4 22 -27z m92 -4 c0 -26 -3 -30 -22 -27 -17 2 -24 11 -26 31
-3 23 0 27 22 27 22 0 26 -4 26 -31z m84 25 c9 -3 16 -17 16 -30 0 -19 -5 -24
-25 -24 -21 0 -25 5 -25 30 0 31 6 35 34 24z m116 -30 c0 -19 -5 -24 -25 -24
-20 0 -25 5 -25 23 0 30 6 36 31 30 12 -3 19 -14 19 -29z m728 9 c-2 -19 -9
-27 -25 -28 -19 -1 -23 3 -23 27 0 23 4 28 26 28 22 0 25 -4 22 -27z m-4068
-8 c0 -20 -5 -25 -25 -25 -20 0 -25 5 -25 25 0 20 5 25 25 25 20 0 25 -5 25
-25z m110 0 c0 -20 -5 -25 -25 -25 -20 0 -25 5 -25 25 0 20 5 25 25 25 20 0
25 -5 25 -25z m106 0 c0 -19 -5 -25 -23 -25 -18 0 -23 6 -23 25 0 19 5 25 23
25 18 0 23 -6 23 -25z m104 0 c0 -20 -5 -25 -25 -25 -20 0 -25 5 -25 25 0 20
5 25 25 25 20 0 25 -5 25 -25z m100 0 c0 -21 -4 -25 -27 -24 -24 2 -25 2 -5 6
26 5 30 30 5 36 -14 4 -12 5 5 6 17 1 22 -4 22 -24z m100 15 c0 -5 -7 -7 -15
-4 -10 4 -15 0 -15 -11 0 -11 5 -15 15 -11 8 3 15 1 15 -4 0 -6 -9 -10 -20
-10 -15 0 -20 7 -20 25 0 18 5 25 20 25 11 0 20 -4 20 -10z m100 -15 c0 -18
-5 -25 -20 -25 -15 0 -20 7 -20 25 0 18 5 25 20 25 15 0 20 -7 20 -25z m100 0
c0 -18 -5 -25 -20 -25 -15 0 -20 7 -20 25 0 18 5 25 20 25 15 0 20 -7 20 -25z
m2710 0 c0 -18 -5 -25 -20 -25 -15 0 -20 7 -20 25 0 18 5 25 20 25 15 0 20 -7
20 -25z m110 0 c0 -20 -5 -25 -25 -25 -20 0 -25 5 -25 25 0 20 5 25 25 25 20
0 25 -5 25 -25z m100 0 c0 -18 -5 -25 -20 -25 -15 0 -20 7 -20 25 0 18 5 25
20 25 15 0 20 -7 20 -25z m110 14 c0 -6 -9 -8 -20 -4 -14 5 -20 2 -20 -10 0
-12 6 -15 20 -10 11 4 20 2 20 -4 0 -6 -11 -11 -25 -11 -20 0 -25 5 -25 25 0
20 5 25 25 25 14 0 25 -5 25 -11z m100 -14 c0 -20 -5 -25 -25 -25 -20 0 -25 5
-25 25 0 20 5 25 25 25 20 0 25 -5 25 -25z m110 0 c0 -20 -5 -25 -25 -25 -20
0 -25 5 -25 25 0 20 5 25 25 25 20 0 25 -5 25 -25z"/>
<path d="M6695 7420 c-4 -6 -12 -7 -18 -3 -7 3 -4 -3 6 -14 9 -11 14 -23 10
-28 -5 -4 -2 -5 5 -1 9 6 10 12 3 20 -7 9 -7 16 1 24 7 7 9 12 6 12 -4 0 -10
-5 -13 -10z"/>
<path d="M6650 7406 c0 -2 8 -10 18 -17 15 -13 16 -12 3 4 -13 16 -21 21 -21
13z"/>
<path d="M6633 7385 c0 -8 4 -12 9 -9 5 3 6 10 3 15 -9 13 -12 11 -12 -6z"/>
<path d="M6555 7361 c-3 -5 -1 -13 5 -16 8 -5 7 -12 -2 -23 -7 -10 -9 -14 -4
-10 5 4 18 3 30 -3 20 -10 20 -10 2 5 -15 12 -16 16 -5 16 10 1 10 4 -4 14
-14 11 -15 15 -5 19 9 4 9 6 1 6 -6 1 -14 -3 -18 -8z"/>
<path d="M6363 7205 c0 -8 4 -12 9 -9 5 3 6 10 3 15 -9 13 -12 11 -12 -6z"/>
<path d="M6325 7171 c-3 -5 -2 -12 3 -15 5 -3 9 1 9 9 0 17 -3 19 -12 6z"/>
<path d="M6885 6846 c0 -13 5 -23 11 -23 6 0 9 9 6 19 -7 27 -17 29 -17 4z"/>
<path d="M6286 6762 c-3 -5 1 -9 9 -9 8 0 12 4 9 9 -3 4 -7 8 -9 8 -2 0 -6 -4
-9 -8z"/>
<path d="M6686 6622 c-3 -5 1 -9 9 -9 8 0 15 4 15 9 0 4 -4 8 -9 8 -6 0 -12
-4 -15 -8z"/>
<path d="M6679 6358 c-5 -18 -6 -38 -1 -34 7 8 12 36 6 36 -2 0 -4 -1 -5 -2z"/>
<path d="M6274 5883 c6 -9 5 -18 -2 -25 -13 -13 4 -52 19 -43 5 4 9 -1 9 -9 0
-19 11 -21 28 -4 8 8 6 16 -8 32 -11 12 -27 30 -37 41 -10 12 -14 15 -9 8z
m19 -49 c-4 -12 -8 -13 -14 -3 -9 15 -2 32 11 24 5 -3 6 -13 3 -21z"/>
<path d="M4299 7314 c0 -5 -2 -17 -4 -27 -2 -10 1 -14 8 -10 7 4 8 0 4 -11 -4
-11 -3 -15 4 -11 6 4 8 13 5 21 -3 8 -1 14 3 14 5 0 12 -6 14 -12 3 -8 6 -8 6
-2 1 6 -8 19 -19 29 -11 10 -20 14 -21 9z"/>
<path d="M7346 7262 c-3 -5 1 -9 9 -9 8 0 12 4 9 9 -3 4 -7 8 -9 8 -2 0 -6 -4
-9 -8z"/>
<path d="M3399 7063 c-7 -10 -9 -15 -5 -11 5 4 15 0 22 -9 11 -15 11 -14 7 10
-6 32 -7 32 -24 10z"/>
<path d="M3656 6682 c-3 -5 1 -9 9 -9 8 0 12 4 9 9 -3 4 -7 8 -9 8 -2 0 -6 -4
-9 -8z"/>
<path d="M3666 6645 c4 -8 8 -15 10 -15 2 0 4 7 4 15 0 8 -4 15 -10 15 -5 0
-7 -7 -4 -15z"/>
<path d="M5184 6858 c-5 -7 -9 -31 -10 -53 -1 -22 0 -34 3 -27 3 6 9 9 14 6 6
-3 5 -12 -3 -22 -9 -11 -5 -10 14 3 29 21 31 42 8 71 -8 9 -13 19 -12 21 2 3
1 7 -1 9 -3 3 -9 -1 -13 -8z m14 -4 c-4 -3 0 -17 7 -31 16 -31 10 -49 -11 -32
-8 7 -13 23 -10 38 5 33 5 31 13 31 3 0 4 -3 1 -6z"/>
<path d="M5190 6816 c0 -8 4 -17 9 -20 5 -4 7 3 4 14 -6 23 -13 26 -13 6z"/>
<path d="M5246 6757 c3 -10 9 -15 12 -12 3 3 0 11 -7 18 -10 9 -11 8 -5 -6z"/>
<path d="M4566 6432 c-3 -5 1 -9 9 -9 8 0 12 4 9 9 -3 4 -7 8 -9 8 -2 0 -6 -4
-9 -8z"/>
<path d="M4539 6425 c-10 -19 -4 -38 14 -41 9 -1 15 1 12 6 -3 5 -2 10 2 13 5
2 3 2 -4 1 -6 -2 -13 5 -15 14 -2 9 -6 13 -9 7z"/>
<path d="M6969 6531 c-33 -33 -36 -58 -14 -101 19 -36 43 -50 88 -50 38 0 83
37 93 75 7 27 -19 80 -45 95 -32 17 -34 11 -4 -14 24 -21 26 -27 18 -52 -8
-22 -20 -31 -47 -38 -74 -18 -118 49 -62 93 15 12 21 21 15 21 -7 0 -26 -13
-42 -29z"/>
<path d="M3991 6182 c-73 -37 -99 -115 -61 -177 30 -49 75 -75 129 -75 40 0
49 5 88 45 37 39 43 51 43 89 0 52 -34 100 -87 122 -43 18 -71 18 -112 -4z
m128 -28 c87 -73 -26 -175 -126 -114 -70 43 -31 140 57 140 27 0 48 -8 69 -26z"/>
<path d="M3328 6254 c6 -3 9 -11 6 -16 -4 -7 -2 -8 4 -4 7 4 12 2 12 -4 0 -6
5 -8 11 -5 17 11 5 28 -22 31 -13 1 -18 0 -11 -2z"/>
<path d="M4592 5947 c-7 -8 -7 -18 -2 -27 9 -13 10 -13 10 0 0 13 1 13 10 0 5
-8 10 -10 10 -4 0 5 -6 16 -12 23 -11 11 -10 13 5 8 11 -4 16 -3 12 3 -8 14
-20 13 -33 -3z"/>
<path d="M5494 5693 c9 -16 -17 -56 -30 -45 -4 4 -3 0 4 -10 10 -12 10 -18 1
-24 -8 -4 -9 -3 -5 4 4 7 2 12 -3 12 -14 0 -14 -17 -1 -25 6 -4 2 -18 -10 -36
-12 -16 -18 -29 -14 -29 3 0 2 -6 -4 -12 -12 -15 -11 -71 1 -59 4 4 9 21 11
37 2 16 4 33 5 37 0 5 7 5 14 1 6 -4 9 -4 5 1 -4 4 -4 13 1 19 6 7 13 25 16
41 10 48 10 49 19 63 5 8 3 18 -4 25 -10 9 -11 9 -6 0z"/>
<path d="M4357 5570 c-6 -21 -9 -22 -17 -10 -6 9 -10 10 -10 3 0 -6 4 -14 9
-17 12 -8 34 20 29 36 -3 7 -8 1 -11 -12z"/>
<path d="M4371 5546 c-9 -11 -9 -16 1 -22 7 -4 10 -4 6 1 -4 4 -3 14 3 22 6 7
9 13 6 13 -2 0 -10 -6 -16 -14z"/>
<path d="M5365 5528 c-9 -22 4 -43 17 -30 7 7 7 16 0 29 -10 17 -11 17 -17 1z"/>
<path d="M5352 5441 c-15 -25 -21 -50 -18 -67 3 -15 1 -33 -5 -40 -7 -8 -7
-14 1 -19 5 -3 10 -1 10 6 0 7 3 10 6 6 3 -3 1 -14 -5 -24 -8 -14 -11 -15 -12
-3 0 8 -10 -3 -20 -25 -16 -32 -19 -34 -14 -12 4 20 2 27 -6 22 -6 -4 -9 -19
-6 -34 3 -15 2 -33 -4 -41 -7 -13 -9 -13 -9 0 0 13 -2 13 -9 0 -6 -8 -7 -18
-4 -24 3 -5 1 -6 -5 -2 -8 5 -10 1 -6 -11 6 -16 4 -15 -10 2 -12 13 -16 15
-13 5 6 -18 -18 -55 -36 -55 -7 -1 -11 -7 -9 -14 1 -7 -1 -10 -6 -7 -5 3 -8
-5 -7 -17 1 -12 0 -14 -2 -4 -2 9 -8 15 -13 12 -5 -3 -7 -13 -4 -23 5 -14 4
-15 -5 -2 -9 13 -11 13 -12 0 -1 -8 -1 -22 0 -30 2 -13 1 -13 -10 0 -9 13 -10
12 -5 -3 3 -10 2 -16 -4 -12 -6 3 -7 -1 -4 -9 5 -13 8 -13 20 -1 8 7 14 19 14
26 0 7 3 9 7 6 10 -11 33 14 33 37 0 13 3 17 8 9 8 -13 95 97 116 147 7 17 15
27 19 24 4 -4 15 11 24 32 10 21 26 50 35 64 9 14 18 32 20 40 2 8 6 17 10 20
3 3 -4 17 -16 33 l-22 27 -22 -39z m25 4 c-7 -18 9 -30 17 -13 3 7 3 1 1 -14
-2 -15 -9 -35 -15 -45 -9 -16 -10 -15 -4 6 4 16 3 21 -5 17 -6 -4 -12 -19 -12
-34 -1 -27 -1 -27 -8 3 -8 35 -2 64 9 45 5 -8 10 -9 14 -2 3 6 2 13 -3 17 -10
5 -4 35 6 35 3 0 3 -7 0 -15z m-146 -303 c-16 -31 -38 -45 -47 -31 -4 8 -3 9
4 5 6 -4 19 5 28 19 19 29 29 34 15 7z"/>
<path d="M5296 5377 c-21 -40 -44 -78 -50 -86 -6 -7 -11 -21 -11 -30 0 -9 -5
-16 -12 -16 -6 0 -21 -12 -33 -27 -12 -16 -19 -28 -17 -28 3 0 -14 -20 -36
-44 -23 -24 -56 -59 -73 -77 -42 -46 -71 -69 -89 -69 -7 0 -17 -5 -20 -10 -4
-6 -10 -8 -14 -6 -13 9 -10 -33 4 -44 8 -6 11 -19 9 -28 -5 -16 -5 -16 5 0 13
20 4 51 -13 41 -6 -4 -4 2 4 13 22 29 24 30 18 13 -9 -23 4 -40 22 -29 13 9
13 10 0 10 -13 0 -13 1 0 10 13 8 13 10 1 10 -11 0 -9 4 4 14 11 8 24 12 29 9
5 -4 6 0 1 7 -6 9 -4 11 5 5 9 -6 11 -4 5 5 -5 9 -4 11 3 6 7 -4 12 -2 12 5 0
7 3 9 6 6 4 -4 1 -13 -5 -21 -8 -9 -8 -16 -2 -20 12 -8 25 30 15 45 -5 8 -3 9
6 4 9 -6 11 -4 5 6 -5 8 -5 11 0 7 4 -4 9 -24 11 -45 1 -25 0 -31 -5 -19 -7
18 -8 18 -14 2 -4 -10 -4 -23 0 -28 4 -7 1 -8 -7 -3 -8 5 -11 4 -6 -3 4 -7 -1
-10 -14 -7 -11 2 -18 0 -15 -5 3 -6 -1 -7 -9 -4 -9 3 -16 1 -16 -6 0 -6 -5 -8
-11 -4 -8 4 -9 -1 -4 -17 5 -19 4 -21 -4 -9 -13 18 -14 1 -2 -18 6 -10 11 -5
20 18 8 26 14 30 24 22 19 -16 82 49 74 77 -2 11 2 30 11 43 25 38 75 88 83
83 17 -11 32 65 15 78 -7 6 -5 7 6 3 9 -2 19 0 21 7 2 7 2 1 0 -13 -3 -24 -3
-24 12 -6 8 10 11 24 8 30 -11 16 -11 46 -1 40 5 -4 7 -12 4 -19 -3 -8 2 -19
10 -25 12 -11 13 -8 8 18 -4 18 -1 32 5 37 9 5 9 11 -1 23 -11 13 -11 14 1 7
11 -6 13 -4 8 9 -4 11 -3 15 4 11 6 -4 10 -1 8 6 -1 8 -1 21 0 29 1 13 3 13
10 1 6 -10 4 -25 -5 -42 -9 -18 -10 -30 -4 -34 6 -3 10 -1 10 4 0 20 2 26 11
37 4 5 6 22 3 37 -2 15 1 37 7 48 6 11 9 22 7 24 -2 2 -21 -29 -42 -68z m-95
-190 c-15 -15 -14 -30 2 -21 6 4 9 4 5 0 -3 -4 -9 -7 -12 -7 -4 1 -20 -15 -37
-34 -17 -19 -35 -33 -39 -30 -5 3 -10 -4 -12 -15 -3 -23 -21 -29 -26 -8 -2 9
0 8 7 -2 9 -13 11 -12 11 4 0 20 59 93 72 89 4 -2 9 2 9 7 1 6 3 15 4 20 1 6
3 13 4 16 0 3 6 2 12 -2 8 -4 8 -9 0 -17z"/>
<path d="M5141 5126 l-24 -31 28 27 c16 15 27 29 24 31 -2 3 -15 -10 -28 -27z"/>
<path d="M5009 4997 c-5 -10 -6 -37 -2 -37 3 0 12 8 19 18 13 16 14 16 7 -2
-4 -14 -3 -17 6 -12 16 10 9 29 -12 32 -9 1 -17 2 -18 1z"/>
<path d="M4893 4895 c0 -8 4 -12 9 -9 5 3 6 10 3 15 -9 13 -12 11 -12 -6z"/>
<path d="M4849 4827 c7 -7 7 -16 -1 -26 -10 -13 -10 -14 2 -4 19 17 21 40 4
40 -10 0 -11 -4 -5 -10z"/>
<path d="M4756 4808 c3 -5 10 -6 15 -3 13 9 11 12 -6 12 -8 0 -12 -4 -9 -9z"/>
<path d="M3426 5713 c-6 -14 -5 -15 5 -6 7 7 10 15 7 18 -3 3 -9 -2 -12 -12z"/>
<path d="M3029 5456 c-6 -4 -4 -44 2 -40 4 2 5 12 2 22 -6 14 -4 15 8 5 13
-10 16 -10 16 0 0 11 -19 19 -28 13z"/>
<path d="M5994 5608 l-29 -33 33 29 c30 28 37 36 29 36 -2 0 -16 -15 -33 -32z"/>
<path d="M6181 4946 c-9 -10 -8 -16 4 -26 10 -8 13 -21 9 -34 -5 -17 -4 -19 7
-9 10 10 10 17 0 37 -8 13 -10 29 -7 35 10 16 1 14 -13 -3z"/>
<path d="M6175 4791 c-3 -5 -2 -12 3 -15 5 -3 9 1 9 9 0 17 -3 19 -12 6z"/>
<path d="M6146 4708 c3 -4 9 -8 15 -8 5 0 9 4 9 8 0 5 -7 9 -15 9 -8 0 -12 -4
-9 -9z"/>
<path d="M6155 4673 c-11 -25 -15 -46 -7 -38 4 4 7 10 7 13 0 4 4 13 9 20 4 7
6 15 3 18 -2 3 -8 -3 -12 -13z"/>
<path d="M6129 4593 c-13 -16 -12 -17 4 -4 9 7 17 15 17 17 0 8 -8 3 -21 -13z"/>
<path d="M6115 4551 c-3 -5 -1 -12 5 -16 5 -3 10 1 10 9 0 18 -6 21 -15 7z"/>
<path d="M5524 4628 l-19 -23 25 20 c14 11 27 21 29 22 2 2 0 3 -6 3 -5 0 -18
-10 -29 -22z"/>
<path d="M2937 4032 c-19 -21 -22 -32 -7 -32 6 0 10 7 10 15 0 8 7 15 15 15 8
0 15 5 15 10 0 16 -15 12 -33 -8z"/>
<path d="M2896 3991 c-4 -5 -2 -12 3 -15 5 -4 12 -2 15 3 4 5 2 12 -3 15 -5 4
-12 2 -15 -3z"/>
<path d="M2870 3960 c0 -5 5 -10 10 -10 6 0 10 5 10 10 0 6 -4 10 -10 10 -5 0
-10 -4 -10 -10z"/>
<path d="M2845 3930 c3 -5 8 -10 11 -10 2 0 4 5 4 10 0 6 -5 10 -11 10 -5 0
-7 -4 -4 -10z"/>
<path d="M2820 3910 c0 -5 5 -10 11 -10 5 0 7 5 4 10 -3 6 -8 10 -11 10 -2 0
-4 -4 -4 -10z"/>
<path d="M2795 3880 c3 -5 8 -10 11 -10 2 0 4 5 4 10 0 6 -5 10 -11 10 -5 0
-7 -4 -4 -10z"/>
<path d="M2770 3860 c0 -5 5 -10 11 -10 5 0 7 5 4 10 -3 6 -8 10 -11 10 -2 0
-4 -4 -4 -10z"/>
<path d="M2740 3830 c0 -5 5 -10 10 -10 6 0 10 5 10 10 0 6 -4 10 -10 10 -5 0
-10 -4 -10 -10z"/>
<path d="M2716 3811 c-4 -5 -2 -12 3 -15 5 -4 12 -2 15 3 4 5 2 12 -3 15 -5 4
-12 2 -15 -3z"/>
<path d="M2690 3780 c0 -5 5 -10 11 -10 5 0 7 5 4 10 -3 6 -8 10 -11 10 -2 0
-4 -4 -4 -10z"/>
<path d="M2666 3761 c-4 -5 -2 -12 3 -15 5 -4 12 -2 15 3 4 5 2 12 -3 15 -5 4
-12 2 -15 -3z"/>
<path d="M2640 3730 c0 -5 5 -10 11 -10 5 0 7 5 4 10 -3 6 -8 10 -11 10 -2 0
-4 -4 -4 -10z"/>
<path d="M2615 3700 c3 -5 8 -10 11 -10 2 0 4 5 4 10 0 6 -5 10 -11 10 -5 0
-7 -4 -4 -10z"/>
<path d="M6292 4188 c-26 -26 1 -65 38 -53 32 10 20 65 -15 65 -6 0 -16 -5
-23 -12z"/>
<path d="M6407 4182 c-22 -24 -21 -29 3 -42 14 -8 26 -8 40 0 24 13 25 23 4
44 -20 20 -27 20 -47 -2z"/>
<path d="M6522 4188 c-29 -29 1 -68 42 -52 28 11 13 64 -19 64 -6 0 -16 -5
-23 -12z"/>
<path d="M6642 4188 c-31 -31 10 -75 43 -48 19 16 19 25 -1 44 -19 19 -26 20
-42 4z"/>
<path d="M6758 4189 c-35 -20 -8 -67 32 -54 22 7 27 34 8 53 -14 14 -18 14
-40 1z"/>
<path d="M6872 4188 c-31 -31 10 -75 43 -48 19 16 19 25 -1 44 -19 19 -26 20
-42 4z"/>
<path d="M6986 4184 c-21 -20 -20 -31 1 -43 23 -12 53 4 53 28 0 11 -7 22 -16
25 -21 8 -20 8 -38 -10z"/>
<path d="M6297 4069 c-23 -13 -22 -46 2 -54 26 -8 51 4 51 26 0 24 -30 40 -53
28z"/>
<path d="M6875 4066 c-22 -16 -15 -50 11 -54 25 -4 47 19 38 41 -8 22 -29 28
-49 13z"/>
<path d="M6986 4064 c-20 -19 -20 -28 -1 -44 33 -27 74 17 43 48 -16 16 -23
15 -42 -4z"/>
<path d="M6400 4055 c-10 -12 -10 -18 0 -30 25 -30 78 -7 64 29 -8 20 -47 21
-64 1z"/>
<path d="M6517 4064 c-14 -14 -7 -43 12 -49 29 -9 52 5 49 29 -3 21 -46 35
-61 20z"/>
<path d="M6637 4063 c-14 -14 -6 -42 14 -48 30 -10 57 18 39 39 -13 16 -42 21
-53 9z"/>
<path d="M6744 4056 c-9 -22 15 -48 40 -44 15 2 21 10 21 28 0 20 -6 26 -28
28 -18 2 -29 -2 -33 -12z"/>
<path d="M6400 3935 c-10 -12 -10 -18 0 -30 25 -30 78 -7 64 29 -8 20 -47 21
-64 1z"/>
<path d="M6517 3944 c-14 -14 -7 -43 12 -49 29 -9 52 5 49 29 -3 21 -46 35
-61 20z"/>
<path d="M6634 3935 c-9 -23 3 -45 24 -45 11 0 25 7 32 15 16 19 -3 45 -32 45
-10 0 -21 -7 -24 -15z"/>
<path d="M6747 3944 c-16 -17 -6 -44 19 -50 30 -8 47 6 42 32 -3 19 -47 32
-61 18z"/>
<path d="M6864 3935 c-9 -23 3 -45 24 -45 25 0 46 25 38 45 -7 19 -55 20 -62
0z"/>
<path d="M6980 3935 c-11 -13 -11 -19 2 -32 22 -22 60 -8 56 20 -4 27 -40 34
-58 12z"/>
<path d="M6170 3815 c-10 -12 -10 -18 0 -30 20 -25 55 -15 55 15 0 30 -35 40
-55 15z"/>
<path d="M6284 3816 c-11 -28 4 -48 33 -44 22 2 28 8 28 28 0 20 -6 26 -28 28
-18 2 -29 -2 -33 -12z"/>
<path d="M6400 3815 c-15 -18 2 -45 30 -45 28 0 45 27 30 45 -7 8 -20 15 -30
15 -10 0 -23 -7 -30 -15z"/>
<path d="M6514 3816 c-11 -28 4 -48 33 -44 22 2 28 8 28 28 0 20 -6 26 -28 28
-18 2 -29 -2 -33 -12z"/>
<path d="M6634 3815 c-9 -23 3 -45 24 -45 29 0 48 26 32 45 -7 8 -21 15 -32
15 -10 0 -21 -7 -24 -15z"/>
<path d="M6752 3821 c-25 -16 -10 -46 23 -46 25 0 30 4 30 25 0 27 -28 38 -53
21z"/>
<path d="M6864 3816 c-14 -37 20 -59 56 -36 12 7 12 13 4 27 -15 24 -52 29
-60 9z"/>
<path d="M6982 3818 c-19 -19 -14 -37 14 -44 30 -8 47 6 42 32 -4 23 -38 30
-56 12z"/>
<path d="M4375 4102 c0 -43 -3 -92 -6 -110 l-7 -32 59 2 c32 1 53 5 47 9 -6 4
-22 5 -35 3 -24 -5 -25 -5 -26 74 -1 20 -6 40 -12 44 -6 5 -6 8 3 8 6 0 12 7
12 15 0 8 -6 15 -12 15 -9 0 -10 2 -2 8 13 8 5 36 -11 39 -6 1 -10 -30 -10
-75z"/>
<path d="M5471 4114 c-1 -6 5 -17 12 -23 10 -8 14 -7 14 4 0 8 -4 12 -8 9 -4
-2 -10 2 -12 8 -4 8 -6 9 -6 2z"/>
<path d="M4631 4045 c1 -11 -2 -30 -5 -43 -3 -16 -1 -20 7 -15 7 4 6 0 -2 -10
-12 -15 -11 -17 7 -17 18 0 20 3 12 31 -5 18 -8 35 -5 38 2 4 0 13 -5 21 -7
12 -9 11 -9 -5z"/>
<path d="M5320 4046 c0 -2 8 -10 18 -17 15 -13 16 -12 3 4 -13 16 -21 21 -21
13z"/>
<path d="M4534 3982 c3 -6 -2 -13 -11 -15 -14 -4 -13 -5 5 -6 23 -1 30 13 10
25 -6 4 -8 3 -4 -4z"/>
<path d="M5105 3970 c-3 -5 1 -10 9 -10 9 0 16 5 16 10 0 6 -4 10 -9 10 -6 0
-13 -4 -16 -10z"/>
<path d="M5291 3934 c0 -11 3 -14 6 -6 3 7 2 16 -1 19 -3 4 -6 -2 -5 -13z"/>
<path d="M5320 3934 c0 -8 5 -12 10 -9 6 4 8 11 5 16 -9 14 -15 11 -15 -7z"/>
<path d="M4410 3930 c0 -5 5 -10 10 -10 6 0 10 5 10 10 0 6 -4 10 -10 10 -5 0
-10 -4 -10 -10z"/>
<path d="M4550 3929 c0 -5 5 -7 10 -4 6 3 10 8 10 11 0 2 -4 4 -10 4 -5 0 -10
-5 -10 -11z"/>
<path d="M5215 3930 c3 -5 8 -10 11 -10 2 0 4 5 4 10 0 6 -5 10 -11 10 -5 0
-7 -4 -4 -10z"/>
<path d="M4225 4151 c-3 -5 -2 -12 3 -15 5 -3 9 1 9 9 0 17 -3 19 -12 6z"/>
<path d="M4242 4098 c7 -15 15 -23 17 -17 2 6 -4 18 -13 27 -15 15 -15 15 -4
-10z"/>
<path d="M4287 3995 c-4 -8 -2 -17 3 -20 6 -4 10 3 10 14 0 25 -6 27 -13 6z"/>
<path d="M5621 4174 c1 -5 0 -11 -1 -14 -7 -19 -7 -41 1 -46 5 -3 9 -24 9 -47
0 -41 0 -41 17 -18 9 13 17 39 19 58 4 39 12 56 24 48 5 -3 11 -1 15 5 4 6 -7
9 -27 7 -18 -2 -39 1 -46 6 -7 6 -12 6 -11 1z m28 -41 c0 15 5 27 9 27 5 0 4
-23 -2 -52 -6 -29 -12 -44 -14 -33 -2 11 -6 27 -9 35 -9 22 -10 34 -4 45 3 6
9 -3 12 -20 l7 -30 1 28z"/>
<path d="M3130 4030 c0 -5 5 -10 10 -10 6 0 10 5 10 10 0 6 -4 10 -10 10 -5 0
-10 -4 -10 -10z"/>
<path d="M4853 3685 c0 -10 4 -12 12 -5 7 5 15 7 18 3 4 -3 7 -1 7 5 0 7 -8
12 -18 12 -10 0 -19 -7 -19 -15z"/>
<path d="M4909 3698 c-11 -33 2 -70 16 -48 4 6 10 8 14 5 5 -2 6 8 3 23 l-6
27 -7 -25 c-6 -21 -14 -11 -10 13 1 6 -8 11 -10 5z"/>
<path d="M4755 3644 c4 -58 14 -73 31 -43 8 15 14 18 14 9 0 -12 3 -11 11 3 6
9 15 14 21 11 6 -4 8 -2 4 4 -3 6 2 16 11 22 17 11 17 11 0 6 -15 -5 -17 -2
-12 17 4 15 0 11 -15 -12 -11 -18 -24 -31 -27 -27 -3 3 0 12 6 20 10 12 9 14
-6 12 -11 -2 -17 -10 -15 -22 3 -16 1 -17 -9 -6 -10 9 -11 17 -2 31 9 14 8 18
-2 18 -9 0 -12 -13 -10 -43z m75 2 c0 -2 -8 -10 -17 -17 -16 -13 -17 -12 -4 4
13 16 21 21 21 13z m-47 -33 c-3 -7 -6 -13 -8 -13 -2 0 -5 6 -8 13 -3 8 1 14
8 14 7 0 11 -6 8 -14z"/>
<path d="M4310 3450 c0 -5 5 -10 10 -10 6 0 10 5 10 10 0 6 -4 10 -10 10 -5 0
-10 -4 -10 -10z"/>
<path d="M4380 3450 c0 -5 5 -10 10 -10 6 0 10 5 10 10 0 6 -4 10 -10 10 -5 0
-10 -4 -10 -10z"/>
<path d="M4420 3449 c0 -5 5 -7 10 -4 6 3 10 8 10 11 0 2 -4 4 -10 4 -5 0 -10
-5 -10 -11z"/>
<path d="M4455 3450 c3 -5 8 -10 11 -10 2 0 4 5 4 10 0 6 -5 10 -11 10 -5 0
-7 -4 -4 -10z"/>
<path d="M4490 3450 c0 -5 5 -10 10 -10 6 0 10 5 10 10 0 6 -4 10 -10 10 -5 0
-10 -4 -10 -10z"/>
<path d="M4525 3450 c3 -5 8 -10 11 -10 2 0 4 5 4 10 0 6 -5 10 -11 10 -5 0
-7 -4 -4 -10z"/>
<path d="M4560 3450 c0 -5 5 -10 10 -10 6 0 10 5 10 10 0 6 -4 10 -10 10 -5 0
-10 -4 -10 -10z"/>
<path d="M4630 3450 c0 -5 5 -10 10 -10 6 0 10 5 10 10 0 6 -4 10 -10 10 -5 0
-10 -4 -10 -10z"/>
<path d="M4670 3450 c0 -5 5 -10 10 -10 6 0 10 5 10 10 0 6 -4 10 -10 10 -5 0
-10 -4 -10 -10z"/>
<path d="M4710 3450 c0 -5 5 -10 10 -10 6 0 10 5 10 10 0 6 -4 10 -10 10 -5 0
-10 -4 -10 -10z"/>
<path d="M4745 3450 c3 -5 8 -10 11 -10 2 0 4 5 4 10 0 6 -5 10 -11 10 -5 0
-7 -4 -4 -10z"/>
<path d="M4780 3450 c0 -5 5 -10 10 -10 6 0 10 5 10 10 0 6 -4 10 -10 10 -5 0
-10 -4 -10 -10z"/>
<path d="M4815 3450 c4 -6 11 -8 16 -5 14 9 11 15 -7 15 -8 0 -12 -5 -9 -10z"/>
<path d="M4855 3450 c4 -6 11 -8 16 -5 14 9 11 15 -7 15 -8 0 -12 -5 -9 -10z"/>
<path d="M4890 3450 c0 -5 5 -10 10 -10 6 0 10 5 10 10 0 6 -4 10 -10 10 -5 0
-10 -4 -10 -10z"/>
<path d="M7760 3425 c0 -8 5 -15 10 -15 6 0 10 7 10 15 0 8 -4 15 -10 15 -5 0
-10 -7 -10 -15z"/>
<path d="M7214 3361 l-21 -38 30 2 c16 2 38 12 50 23 20 20 7 26 -20 9 -17
-11 -27 11 -13 28 7 8 9 15 4 15 -5 0 -18 -18 -30 -39z m24 -26 c-3 -3 -9 2
-12 12 -6 14 -5 15 5 6 7 -7 10 -15 7 -18z"/>
<path d="M7965 2849 c-4 -6 -5 -12 -2 -15 2 -3 7 2 10 11 7 17 1 20 -8 4z"/>
<path d="M6827 2756 c-4 -9 -14 -12 -28 -9 -18 5 -20 3 -12 -13 8 -17 9 -40 3
-54 -6 -14 -7 -66 -1 -75 3 -5 7 -50 7 -99 1 -74 4 -92 20 -103 10 -7 13 -13
5 -13 -13 0 -6 -37 11 -55 5 -6 5 2 -1 17 -6 17 -7 29 -1 33 6 4 11 1 11 -4 3
-26 4 -30 11 -37 11 -10 0 36 -11 50 -7 9 -7 16 0 23 8 8 7 13 -1 18 -8 5 -7
11 2 23 11 13 11 14 -1 8 -9 -6 -12 -5 -9 5 3 8 12 13 19 11 9 -2 8 3 -4 16
-25 27 -21 39 5 16 13 -10 18 -12 12 -4 -12 18 -12 30 0 49 6 9 5 12 -1 8 -6
-4 -16 0 -22 7 -9 10 -9 16 -1 21 6 4 8 16 4 27 -4 13 -2 18 4 14 7 -4 9 2 6
16 -2 13 -5 36 -6 51 -1 15 -5 30 -9 33 -5 2 -6 11 -2 19 3 8 3 15 0 15 -3 0
-7 -6 -10 -14z m-13 -87 c-1 -28 2 -46 6 -40 4 7 6 34 4 62 -1 30 1 47 7 43 6
-3 8 -11 6 -17 -2 -7 0 -24 4 -39 4 -16 3 -30 -2 -34 -5 -3 -7 -14 -4 -24 3
-10 1 -21 -5 -25 -8 -5 -7 -11 2 -22 12 -15 20 -43 12 -43 -2 0 -11 12 -19 28
-9 15 -13 18 -9 7 3 -11 6 -27 7 -35 0 -8 4 -20 9 -27 6 -7 5 -14 -2 -18 -6
-4 -9 -13 -6 -21 3 -8 0 -14 -6 -14 -7 0 -4 -6 7 -13 13 -10 15 -16 6 -21 -20
-13 -24 -1 -26 96 -1 51 -3 93 -4 93 -7 0 -7 67 -1 70 4 3 6 19 4 37 -2 19 0
28 4 20 5 -7 7 -35 6 -63z"/>
<path d="M6807 2609 c7 -7 15 -10 18 -7 3 3 -2 9 -12 12 -14 6 -15 5 -6 -5z"/>
<path d="M2342 2613 c-1 -198 1 -293 8 -283 8 12 10 13 10 1 0 -8 3 -11 6 -8
4 4 1 13 -5 21 -10 11 -12 81 -10 273 1 142 5 262 7 267 3 5 9 1 14 -10 7 -16
8 -17 5 -1 -1 10 -6 17 -11 17 -5 -1 -12 3 -16 9 -3 6 -7 -123 -8 -286z"/>
<path d="M3138 2703 c0 -4 -2 -83 -3 -175 -1 -125 2 -165 10 -158 7 6 16 6 21
2 5 -4 1 2 -9 14 -16 20 -16 22 3 39 18 16 19 20 5 35 -14 15 -14 18 0 30 13
11 12 15 -5 37 -22 28 -26 58 -9 68 5 4 8 12 6 18 -2 7 2 19 10 28 12 14 11
18 -4 30 -15 12 -16 12 -11 -2 3 -9 2 -22 -2 -30 -7 -10 -9 -7 -8 11 1 14 5
30 10 37 5 6 5 14 -2 18 -5 3 -11 3 -12 -2z m9 -265 c-3 -8 -6 -5 -6 6 -1 11
2 17 5 13 3 -3 4 -12 1 -19z"/>
<path d="M3090 2681 c0 -7 -4 -10 -8 -7 -5 3 -9 -2 -9 -10 0 -13 2 -13 16 0 8
9 12 19 8 22 -4 4 -7 2 -7 -5z"/>
<path d="M3050 2496 c0 -2 8 -10 18 -17 15 -13 16 -12 3 4 -13 16 -21 21 -21
13z"/>
<path d="M3064 2356 c1 -8 5 -18 8 -22 4 -3 5 1 4 10 -1 8 -5 18 -8 22 -4 3
-5 -1 -4 -10z"/>
<path d="M2388 2323 c7 -3 16 -2 19 1 4 3 -2 6 -13 5 -11 0 -14 -3 -6 -6z"/>
<path d="M4319 2743 c-1 -5 -1 -12 0 -17 1 -5 -1 -16 -4 -25 -6 -14 -8 -14
-18 -1 -13 17 -42 26 -32 11 3 -6 -1 -24 -10 -40 -8 -16 -11 -32 -6 -35 7 -5
20 18 25 47 2 10 21 9 21 -2 0 -19 15 -24 16 -5 0 18 1 18 9 -1 10 -24 11 -22
15 33 1 23 -1 42 -6 42 -5 0 -10 -3 -10 -7z"/>
<path d="M4349 2740 c-1 -5 -2 -22 -3 -37 -2 -47 -20 -60 -53 -40 -14 9 -46
-50 -36 -67 4 -6 8 -42 9 -81 1 -51 -3 -75 -15 -88 -15 -17 -24 -87 -12 -87 4
0 11 8 18 18 9 15 22 18 62 17 39 -1 51 2 47 11 -3 8 -2 16 3 18 9 6 8 187 -2
203 -4 6 -5 17 -2 25 10 25 12 89 3 94 -5 3 -6 10 -3 15 4 5 1 9 -4 9 -6 0
-12 -4 -12 -10z m16 -19 c3 -5 2 -12 -3 -15 -5 -3 -9 1 -9 9 0 17 3 19 12 6z
m-3 -53 c-6 -6 -8 -16 -6 -23 3 -7 1 -16 -5 -20 -15 -9 -14 -26 1 -22 7 1 12
-13 12 -40 1 -22 -2 -39 -6 -36 -5 2 -8 -3 -8 -12 0 -9 4 -14 9 -11 10 7 7
-81 -4 -107 -7 -17 -8 -17 -22 0 -12 14 -14 15 -10 2 3 -9 -1 -16 -8 -16 -7 0
-11 7 -8 16 3 11 0 10 -11 -3 -12 -15 -16 -16 -16 -5 -1 11 -4 10 -14 -4 -12
-16 -13 -15 -13 10 0 16 2 22 4 15 7 -19 23 -4 17 16 -5 14 -4 15 5 2 9 -13
11 -13 11 2 0 9 -3 19 -8 22 -9 5 -7 69 2 85 4 5 2 12 -4 16 -6 4 -8 10 -5 15
3 5 1 19 -6 31 -8 15 -8 19 0 15 10 -7 16 14 12 38 -1 5 4 4 12 -2 8 -7 17 -9
21 -5 4 4 4 -1 0 -12 -4 -14 2 -11 19 10 14 16 23 34 20 39 -4 5 -1 6 6 1 9
-5 9 -11 3 -17z"/>
<path d="M4333 2627 c-6 -12 -11 -33 -11 -47 -1 -22 0 -23 9 -7 6 9 7 22 4 28
-4 5 -1 17 6 25 6 8 10 17 7 19 -3 3 -9 -5 -15 -18z"/>
<path d="M4290 2630 c-6 -40 -5 -72 2 -76 4 -3 4 -12 1 -21 -9 -22 -8 -63 2
-86 4 -10 2 -24 -6 -35 -13 -16 -13 -16 5 -2 20 16 22 15 44 -2 6 -6 12 -9 13
-7 7 47 6 85 -2 95 -5 7 -7 25 -4 41 4 15 9 37 11 48 3 13 0 11 -11 -8 -15
-26 -42 -29 -32 -3 3 6 -1 25 -8 41 -8 17 -14 23 -15 15z m14 -36 c3 -8 2 -12
-4 -9 -6 3 -10 10 -10 16 0 14 7 11 14 -7z m29 -52 c4 9 6 10 6 1 1 -6 -4 -15
-9 -18 -8 -5 -7 -12 2 -22 16 -20 20 -50 7 -58 -6 -5 -6 -12 3 -23 11 -15 11
-15 -3 -5 -9 7 -19 11 -22 8 -4 -3 -5 -2 -2 2 3 3 0 12 -6 20 -6 7 -9 22 -6
33 3 11 1 23 -4 26 -6 3 -5 11 2 20 7 8 8 19 3 27 -5 7 -2 5 8 -5 12 -13 18
-15 21 -6z"/>
<path d="M4307 2524 c-4 -4 -3 -12 0 -18 4 -6 7 -20 7 -31 1 -11 6 -21 11 -23
15 -4 14 36 -1 49 -8 6 -11 15 -8 20 6 10 0 12 -9 3z"/>
<path d="M4579 2673 c-13 -16 -12 -17 4 -4 9 7 17 15 17 17 0 8 -8 3 -21 -13z"/>
<path d="M4569 2648 c-7 -24 -4 -40 9 -50 15 -11 15 -11 6 2 -6 8 -10 23 -9
33 3 13 -2 26 -6 15z"/>
<path d="M4559 2483 c-5 -33 -5 -94 0 -97 3 -2 6 20 7 50 0 30 -1 54 -3 54 -2
0 -3 -3 -4 -7z"/>
<path d="M4527 2405 c-4 -8 -2 -17 4 -21 6 -4 6 -12 -3 -22 -10 -14 -10 -15 2
-5 9 9 17 9 26 2 8 -7 14 -6 20 3 4 7 3 10 -1 5 -12 -10 -45 22 -38 39 3 8 3
14 0 14 -3 0 -7 -7 -10 -15z"/>
<path d="M4580 2386 c0 -2 8 -10 18 -17 15 -13 16 -12 3 4 -13 16 -21 21 -21
13z"/>
<path d="M4404 2705 c1 -14 5 -25 9 -25 4 0 10 0 13 0 4 0 1 6 -5 13 -6 8 -8
16 -5 19 3 3 1 9 -4 12 -5 3 -8 -6 -8 -19z"/>
<path d="M4506 2507 c3 -10 9 -15 12 -12 3 3 0 11 -7 18 -10 9 -11 8 -5 -6z"/>
<path d="M3890 2275 c0 -8 5 -15 10 -15 6 0 10 7 10 15 0 8 -4 15 -10 15 -5 0
-10 -7 -10 -15z"/>
<path d="M3980 2275 c0 -8 6 -15 13 -15 8 0 14 7 14 15 0 8 -6 15 -14 15 -7 0
-13 -7 -13 -15z"/>
<path d="M4080 2275 c0 -8 5 -15 10 -15 6 0 10 7 10 15 0 8 -4 15 -10 15 -5 0
-10 -7 -10 -15z"/>
<path d="M4170 2275 c0 -8 5 -15 10 -15 6 0 10 7 10 15 0 8 -4 15 -10 15 -5 0
-10 -7 -10 -15z"/>
<path d="M4265 2281 c-3 -5 -2 -12 3 -15 5 -3 9 1 9 9 0 17 -3 19 -12 6z"/>
<path d="M4361 2274 c0 -11 3 -14 6 -6 3 7 2 16 -1 19 -3 4 -6 -2 -5 -13z"/>
<path d="M3200 2265 c0 -8 6 -15 13 -15 8 0 14 7 14 15 0 8 -6 15 -14 15 -7 0
-13 -7 -13 -15z"/>
<path d="M3510 2265 c0 -8 5 -15 10 -15 6 0 10 7 10 15 0 8 -4 15 -10 15 -5 0
-10 -7 -10 -15z"/>
<path d="M3610 2265 c0 -8 5 -15 10 -15 6 0 10 7 10 15 0 8 -4 15 -10 15 -5 0
-10 -7 -10 -15z"/>
<path d="M6320 2265 c0 -8 5 -15 10 -15 6 0 10 7 10 15 0 8 -4 15 -10 15 -5 0
-10 -7 -10 -15z"/>
<path d="M6420 2265 c0 -8 7 -15 15 -15 8 0 15 7 15 15 0 8 -7 15 -15 15 -8 0
-15 -7 -15 -15z"/>
<path d="M6530 2265 c0 -8 5 -15 10 -15 6 0 10 7 10 15 0 8 -4 15 -10 15 -5 0
-10 -7 -10 -15z"/>
<path d="M6730 2265 c0 -8 7 -15 15 -15 8 0 15 7 15 15 0 8 -7 15 -15 15 -8 0
-15 -7 -15 -15z"/>
<path d="M722 7323 c-6 -60 -25 -227 -42 -373 -17 -146 -28 -283 -25 -304 10
-66 65 -155 154 -249 101 -106 195 -183 356 -290 155 -104 225 -155 225 -166
0 -5 -58 -32 -130 -61 -72 -29 -130 -56 -130 -62 0 -5 -6 -6 -12 -2 -9 6 -9 3
1 -9 7 -9 11 -24 7 -32 -4 -11 -2 -14 6 -9 8 5 9 2 5 -10 -4 -10 -7 -22 -7
-27 0 -6 -6 -7 -12 -3 -10 6 -10 4 0 -7 6 -7 12 -19 12 -27 0 -8 -5 -10 -12
-6 -10 6 -10 5 -1 -7 10 -12 10 -18 0 -29 -10 -10 -9 -11 2 -5 10 6 12 1 6
-26 -9 -39 -16 -111 -15 -152 0 -20 -3 -26 -12 -21 -10 6 -11 5 -1 -8 7 -8 10
-17 8 -20 -3 -3 -7 -26 -9 -51 -3 -26 -7 -51 -10 -56 -4 -5 -3 -12 2 -15 5 -3
9 0 10 7 5 28 13 102 28 237 2 19 8 69 13 110 5 41 8 77 6 80 -2 4 1 7 8 7 20
1 157 53 244 94 l83 38 70 -77 c75 -81 146 -204 132 -228 -12 -21 -92 -103
-128 -131 -19 -14 -38 -22 -45 -17 -7 4 -9 3 -5 -4 9 -14 -76 -63 -247 -142
-122 -56 -141 -62 -159 -51 -18 11 -20 11 -14 -4 3 -9 6 -21 6 -26 0 -6 6 -9
14 -7 8 2 15 0 15 -4 4 -39 -2 -50 -31 -63 -44 -19 -24 -19 42 1 78 23 264
113 357 172 85 55 169 136 197 191 11 21 30 126 51 289 18 141 41 316 51 388
21 158 15 191 -57 299 -85 127 -226 248 -514 443 -151 101 -262 192 -332 271
-51 57 -111 156 -125 206 -6 22 -14 43 -18 48 -3 4 -12 -41 -18 -100z m55 -55
c-3 -8 -6 -5 -6 6 -1 11 2 17 5 13 3 -3 4 -12 1 -19z m90 -155 c-3 -10 -5 -4
-5 12 0 17 2 24 5 18 2 -7 2 -21 0 -30z m53 -28 c0 -8 -4 -17 -10 -20 -6 -4
-10 5 -10 20 0 15 4 24 10 20 6 -3 10 -12 10 -20z m40 -51 c0 -14 -4 -23 -9
-20 -5 3 -7 15 -4 26 7 28 13 25 13 -6z m48 -40 c0 -17 -4 -22 -11 -15 -5 5
-7 17 -4 25 9 23 15 19 15 -10z m-67 -21 c13 -16 12 -17 -3 -4 -17 13 -22 21
-14 21 2 0 10 -8 17 -17z m124 -3 c3 -5 1 -10 -4 -10 -6 0 -11 5 -11 10 0 6 2
10 4 10 3 0 8 -4 11 -10z m-74 -37 c13 -16 12 -17 -3 -4 -17 13 -22 21 -14 21
2 0 10 -8 17 -17z m64 7 c3 -5 1 -10 -4 -10 -6 0 -11 5 -11 10 0 6 2 10 4 10
3 0 8 -4 11 -10z m61 -35 c1 -14 -2 -23 -7 -20 -5 4 -9 18 -9 32 0 32 12 23
16 -12z m59 -14 c3 -5 1 -12 -5 -16 -5 -3 -10 1 -10 9 0 18 6 21 15 7z m-84
-38 c13 -16 12 -17 -3 -4 -17 13 -22 21 -14 21 2 0 10 -8 17 -17z m89 -3 c0
-5 -2 -10 -4 -10 -3 0 -8 5 -11 10 -3 6 -1 10 4 10 6 0 11 -4 11 -10z m70 -24
c0 -6 -5 -4 -11 4 -9 12 -10 11 -6 -8 3 -12 1 -20 -4 -16 -5 3 -9 17 -9 31 0
21 2 24 15 13 8 -7 15 -18 15 -24z m-59 -43 c13 -16 12 -17 -3 -4 -17 13 -22
21 -14 21 2 0 10 -8 17 -17z m-514 -35 c-3 -8 -6 -5 -6 6 -1 11 2 17 5 13 3
-3 4 -12 1 -19z m530 -130 c-3 -8 -6 -5 -6 6 -1 11 2 17 5 13 3 -3 4 -12 1
-19z m-490 -55 c-3 -10 -5 -4 -5 12 0 17 2 24 5 18 2 -7 2 -21 0 -30z m58 7
c10 -11 16 -20 13 -20 -3 0 -13 9 -23 20 -10 11 -16 20 -13 20 3 0 13 -9 23
-20z m422 -22 c-3 -7 -5 -2 -5 12 0 14 2 19 5 13 2 -7 2 -19 0 -25z m-450 -25
c-3 -10 -5 -4 -5 12 0 17 2 24 5 18 2 -7 2 -21 0 -30z m113 -48 c30 -30 52
-55 49 -55 -2 0 -29 25 -59 55 -30 30 -52 55 -49 55 2 0 29 -25 59 -55z m-79
2 c-10 -9 -11 -8 -5 6 3 10 9 15 12 12 3 -3 0 -11 -7 -18z m49 -38 c0 -10 -4
-19 -9 -19 -5 0 -8 11 -7 24 1 28 16 24 16 -5z m40 -45 c0 -14 -4 -23 -9 -20
-5 3 -7 15 -4 26 7 28 13 25 13 -6z m150 -61 c0 -7 -75 54 -91 74 -8 10 10 -2
39 -26 28 -24 52 -46 52 -48z m-100 21 c0 -14 -4 -23 -10 -19 -5 3 -10 15 -10
26 0 10 5 19 10 19 6 0 10 -12 10 -26z m48 -50 c1 -14 -2 -23 -8 -19 -12 7
-14 45 -2 45 4 0 9 -11 10 -26z m83 9 c13 -16 12 -17 -3 -4 -17 13 -22 21 -14
21 2 0 10 -8 17 -17z m40 -30 c13 -16 12 -17 -3 -4 -17 13 -22 21 -14 21 2 0
10 -8 17 -17z m-61 -19 c0 -14 -4 -23 -10 -19 -5 3 -10 15 -10 26 0 10 5 19
10 19 6 0 10 -12 10 -26z m60 -45 c0 -23 -21 -21 -28 2 -3 11 -1 11 8 -1 10
-12 11 -11 7 8 -3 12 -1 20 4 16 5 -3 9 -14 9 -25z m286 -357 c-15 -15 -16
-15 -16 4 0 28 24 52 28 28 2 -9 -3 -24 -12 -32z m68 39 c3 -5 -1 -11 -9 -15
-9 -3 -15 0 -15 9 0 16 16 20 24 6z m-135 -72 c-19 -12 -21 -5 -7 27 11 29 12
29 16 5 2 -13 -2 -27 -9 -32z m-55 15 c-7 -3 -10 -14 -7 -24 3 -11 0 -20 -6
-20 -12 0 -15 32 -4 43 3 4 11 7 17 6 7 0 7 -2 0 -5z m-64 -39 c0 -14 -8 -29
-19 -35 -23 -12 -34 0 -24 26 5 13 3 15 -8 10 -8 -4 -5 0 5 8 29 23 46 20 46
-9z m457 -347 c-3 -7 -5 -2 -5 12 0 14 2 19 5 13 2 -7 2 -19 0 -25z m-30 -30
c-3 -7 -5 -2 -5 12 0 14 2 19 5 13 2 -7 2 -19 0 -25z m-45 -50 c-6 -6 -7 0 -4
19 5 21 7 23 10 9 2 -10 0 -22 -6 -28z m-40 -15 c-3 -16 -7 -22 -10 -15 -4 13
4 42 11 42 2 0 2 -12 -1 -27z m-51 -34 c-9 -22 -10 -22 -10 -3 -1 11 2 24 6
27 12 12 14 0 4 -24z m-51 -34 c-6 -15 -13 -26 -16 -23 -2 3 0 18 6 33 6 15
13 26 16 23 2 -3 0 -18 -6 -33z m-50 -19 c0 -13 -7 -26 -14 -29 -10 -4 -13 -1
-10 9 2 7 6 21 9 29 7 23 15 18 15 -9z m-60 -35 c0 -10 -7 -21 -15 -25 -15 -5
-22 24 -8 37 12 13 23 7 23 -12z m-70 -30 c0 -11 -4 -23 -10 -26 -6 -4 -10 5
-10 19 0 14 5 26 10 26 6 0 10 -9 10 -19z m-70 -46 c-7 -8 -16 -15 -20 -15
-11 0 1 43 14 52 16 11 20 -20 6 -37z"/>
<path d="M1415 5810 c-4 -6 -10 -8 -15 -5 -5 3 -11 1 -15 -4 -3 -6 -12 -8 -19
-5 -7 3 -16 -2 -20 -11 -3 -9 -2 -14 3 -10 5 3 8 -3 6 -12 -1 -10 2 -26 7 -36
5 -10 7 -21 4 -24 -3 -3 -10 5 -15 18 -8 19 -9 15 -7 -23 2 -26 0 -45 -3 -43
-4 2 -6 -16 -5 -40 2 -42 -12 -54 -33 -30 -4 4 -2 5 5 1 8 -5 12 0 13 13 1 12
2 27 3 34 1 6 -3 18 -8 26 -8 11 -8 13 0 8 8 -4 12 3 12 21 0 15 2 44 5 65 3
20 3 37 1 37 -2 0 -26 -10 -53 -22 -47 -20 -50 -23 -56 -67 -3 -25 -8 -92 -10
-148 -2 -57 -7 -107 -10 -113 -13 -21 7 -8 34 23 26 28 28 34 15 48 -13 14
-12 18 3 30 16 12 17 12 6 -2 -10 -12 -10 -18 -1 -27 13 -13 20 -43 10 -39 -4
1 -7 -2 -7 -8 0 -5 4 -9 8 -7 5 1 6 -2 3 -7 -4 -5 -2 -13 4 -16 7 -4 7 -11 2
-18 -5 -7 -8 -20 -7 -30 2 -9 0 -15 -5 -12 -9 6 -8 24 3 41 3 6 -2 19 -12 28
-18 17 -20 17 -28 -1 -13 -25 -10 -49 5 -45 7 1 11 -1 11 -5 -1 -5 0 -10 1
-13 7 -19 7 -41 0 -45 -5 -3 -7 3 -5 14 2 11 -5 27 -16 36 -10 10 -16 22 -13
26 3 5 1 9 -4 9 -9 0 -26 -149 -18 -157 2 -2 21 4 42 13 22 9 42 16 47 16 8
-2 47 58 47 73 -1 6 -9 -4 -18 -22 l-17 -32 -12 25 c-11 23 -10 24 4 12 14
-11 16 -11 10 4 -3 9 -2 30 2 46 5 17 5 36 -1 47 -8 13 -7 16 1 11 19 -12 17
79 -2 104 -10 13 -10 13 6 1 12 -9 17 -10 17 -2 0 7 5 9 10 6 6 -3 10 -11 10
-16 0 -6 -4 -8 -8 -5 -5 3 -9 -1 -9 -9 0 -8 3 -13 5 -10 3 3 15 -3 26 -12 20
-17 20 -17 7 0 -7 9 -10 17 -7 17 4 0 2 8 -3 18 -6 11 -6 24 -1 32 5 8 5 19 0
25 -6 7 -4 22 5 39 8 15 14 30 13 34 -1 4 4 18 11 31 9 17 16 20 24 12 6 -6
16 -11 22 -11 5 0 2 5 -8 11 -9 6 -14 15 -11 21 4 7 2 8 -4 4 -7 -4 -12 -2
-12 3 0 6 6 11 13 11 8 0 7 4 -3 10 -14 9 -6 15 15 10 6 -1 7 2 3 6 -4 4 -3
13 3 21 6 7 9 13 6 13 -3 0 -9 -5 -12 -10z m-22 -22 c-6 -7 -9 -23 -8 -36 2
-20 -14 -45 -16 -25 -5 43 -5 61 2 57 4 -2 10 0 14 6 3 5 9 10 12 10 3 0 1 -6
-4 -12z m-86 -153 c0 -8 -4 -12 -9 -9 -5 3 -6 10 -3 15 9 13 12 11 12 -6z
m-47 -68 c0 -2 -8 -11 -18 -20 -15 -14 -19 -15 -19 -2 0 8 4 12 8 9 4 -2 10 0
14 6 6 10 15 14 15 7z m-21 -61 c9 -10 7 -17 -6 -27 -16 -12 -17 -12 -6 2 10
12 10 18 1 27 -7 7 -9 12 -6 12 3 0 11 -6 17 -14z m16 -75 c3 -5 2 -12 -3 -15
-5 -3 -9 1 -9 9 0 17 3 19 12 6z m-29 -85 c-2 -38 -12 -39 -12 -1 0 18 3 32 7
30 3 -3 5 -15 5 -29z"/>
<path d="M1439 5805 c-1 -3 -2 -8 -3 -12 -1 -5 -5 -15 -10 -23 -7 -12 -6 -13
4 -3 13 12 23 43 14 43 -2 0 -5 -2 -5 -5z"/>
<path d="M948 5755 c-279 -116 -446 -258 -463 -395 -3 -30 -26 -205 -51 -389
-50 -381 -51 -367 33 -440 195 -172 839 -331 1808 -447 l140 -16 341 341 c331
332 339 341 310 346 -33 6 -531 66 -701 85 -252 28 -605 72 -760 96 -236 35
-594 110 -612 128 -2 2 -20 -2 -38 -10 -19 -7 -40 -11 -48 -8 -8 3 -17 -2 -20
-10 -4 -9 -12 -16 -19 -16 -9 0 -10 2 -2 8 7 4 11 20 10 36 -1 19 6 33 21 43
20 13 21 13 16 -7 -4 -14 -11 -19 -21 -15 -12 4 -12 1 3 -15 22 -24 34 -12 30
31 -2 21 2 29 13 29 8 0 13 3 10 6 -4 3 -31 -2 -61 -12 l-56 -17 -87 42 c-106
51 -177 101 -215 154 -26 36 -27 41 -14 61 60 86 198 188 373 275 89 45 102
54 102 77 0 14 5 34 10 45 6 10 9 19 8 19 -2 -1 -29 -12 -60 -25z m34 -22 c-6
-34 -20 -53 -39 -53 -25 0 -11 53 17 67 14 7 26 13 26 13 1 0 -1 -12 -4 -27z
m-72 -38 c0 -14 -8 -29 -20 -35 -18 -10 -20 -8 -20 19 0 26 9 38 33 40 4 1 7
-10 7 -24z m-82 -66 c-18 -12 -24 27 -6 48 11 15 13 13 16 -12 2 -16 -2 -31
-10 -36z m-46 -4 c-11 -39 -35 -47 -26 -8 6 24 24 47 31 39 1 -1 -1 -15 -5
-31z m-52 -29 c0 -13 -7 -26 -15 -30 -16 -6 -18 -2 -9 32 8 29 24 28 24 -2z
m-50 -23 c0 -22 -17 -50 -25 -42 -6 7 11 59 20 59 3 0 5 -8 5 -17z m-59 -76
c-8 -8 -11 -4 -11 14 0 33 14 47 18 19 2 -12 -1 -27 -7 -33z m-40 -24 c-10
-17 -10 -16 -11 3 0 23 13 41 18 25 2 -6 -1 -18 -7 -28z m-34 -35 c-3 -7 -5
-2 -5 12 0 14 2 19 5 13 2 -7 2 -19 0 -25z m287 -383 c-6 -16 -24 -21 -24 -7
0 11 11 22 21 22 5 0 6 -7 3 -15z m511 -120 c0 -14 -3 -25 -7 -25 -10 0 -10
34 -1 43 3 4 7 7 7 7 1 0 1 -11 1 -25z m35 5 c0 -5 -2 -10 -4 -10 -3 0 -8 5
-11 10 -3 6 -1 10 4 10 6 0 11 -4 11 -10z m63 -19 c-3 -13 1 -21 14 -24 15 -4
14 -5 -4 -6 -18 -1 -23 4 -23 24 0 14 4 25 9 25 5 0 7 -9 4 -19z m137 -26 c0
-17 -5 -25 -17 -24 -11 0 -13 3 -5 6 17 7 15 33 -2 33 -8 0 -17 -10 -19 -22
-4 -20 -4 -19 -6 5 -1 23 3 27 24 27 20 0 25 -5 25 -25z m210 -30 c0 -20 -5
-25 -25 -25 -20 0 -25 5 -25 25 0 20 5 25 25 25 20 0 25 -5 25 -25z m-145 5
c3 -5 1 -10 -4 -10 -6 0 -11 5 -11 10 0 6 2 10 4 10 3 0 8 -4 11 -10z m32 -12
c-3 -8 -6 -5 -6 6 -1 11 2 17 5 13 3 -3 4 -12 1 -19z m220 6 c-3 -3 -12 -4
-19 -1 -8 3 -5 6 6 6 11 1 17 -2 13 -5z m-497 -8 c0 -2 -15 -6 -34 -8 -19 -2
-32 0 -30 4 5 8 64 12 64 4z m600 -21 c0 -20 -5 -25 -25 -25 -20 0 -25 5 -25
25 0 20 5 25 25 25 20 0 25 -5 25 -25z m-543 9 c-3 -3 -12 -4 -19 -1 -8 3 -5
6 6 6 11 1 17 -2 13 -5z m56 -11 c-7 -2 -19 -2 -25 0 -7 3 -2 5 12 5 14 0 19
-2 13 -5z m74 -9 c-3 -3 -12 -4 -19 -1 -8 3 -5 6 6 6 11 1 17 -2 13 -5z m-260
-36 c-3 -7 -5 -2 -5 12 0 14 2 19 5 13 2 -7 2 -19 0 -25z m316 25 c-7 -2 -19
-2 -25 0 -7 3 -2 5 12 5 14 0 19 -2 13 -5z m457 -3 c0 -5 -12 -10 -27 -9 l-28
1 25 8 c14 4 26 8 28 9 1 1 2 -3 2 -9z m209 -7 c0 -11 -3 -13 -6 -5 -7 18 -31
15 -36 -5 -4 -14 -5 -12 -6 5 -1 17 4 22 24 22 17 0 25 -5 24 -17z m-596 0
c-7 -2 -19 -2 -25 0 -7 3 -2 5 12 5 14 0 19 -2 13 -5z m697 -2 c0 -5 -9 -7
-20 -4 -14 4 -20 0 -20 -12 0 -12 6 -16 20 -12 11 3 18 1 14 -4 -3 -5 -14 -9
-25 -9 -14 0 -19 7 -19 25 0 20 5 25 25 25 14 0 25 -4 25 -9z m-627 -8 c-7 -2
-19 -2 -25 0 -7 3 -2 5 12 5 14 0 19 -2 13 -5z m394 1 c-3 -3 -12 -4 -19 -1
-8 3 -5 6 6 6 11 1 17 -2 13 -5z m311 -1 c-10 -2 -18 -11 -18 -19 0 -17 16
-19 23 -1 3 7 6 5 6 -5 1 -12 -6 -18 -19 -18 -15 0 -20 7 -20 25 0 20 5 25 23
24 16 -1 18 -2 5 -6z m-625 -10 c-7 -2 -21 -2 -30 0 -10 3 -4 5 12 5 17 0 24
-2 18 -5z m737 -18 c0 -21 -4 -25 -27 -24 -24 2 -25 2 -5 6 12 2 22 11 22 19
0 17 -16 19 -23 2 -3 -8 -6 -6 -6 5 -1 11 6 17 19 17 15 0 20 -7 20 -25z
m-657 8 c-7 -2 -21 -2 -30 0 -10 3 -4 5 12 5 17 0 24 -2 18 -5z m757 -18 c0
-25 -23 -35 -35 -15 -3 6 1 7 9 4 11 -4 16 0 16 11 0 11 -5 15 -15 11 -8 -3
-15 -1 -15 4 0 6 9 10 20 10 15 0 20 -7 20 -25z m-677 8 c-7 -2 -21 -2 -30 0
-10 3 -4 5 12 5 17 0 24 -2 18 -5z m767 -18 c0 -18 -5 -25 -20 -25 -15 0 -20
7 -20 25 0 18 5 25 20 25 15 0 20 -7 20 -25z m-697 8 c-7 -2 -19 -2 -25 0 -7
3 -2 5 12 5 14 0 19 -2 13 -5z m760 -13 c-3 -11 -1 -20 5 -20 6 0 13 10 15 23
4 19 4 18 6 -5 1 -22 -4 -28 -19 -28 -15 0 -20 7 -20 25 0 14 4 25 9 25 5 0 7
-9 4 -20z m-1536 -12 c-3 -8 -6 -5 -6 6 -1 11 2 17 5 13 3 -3 4 -12 1 -19z
m866 15 c-7 -2 -19 -2 -25 0 -7 3 -2 5 12 5 14 0 19 -2 13 -5z m760 -13 c-3
-11 -1 -20 5 -20 6 0 13 8 15 18 4 13 5 11 6 -5 1 -17 -5 -23 -19 -23 -20 0
-28 28 -13 43 10 11 11 8 6 -13z m-675 3 c-10 -2 -26 -2 -35 0 -10 3 -2 5 17
5 19 0 27 -2 18 -5z m95 -10 c-7 -2 -21 -2 -30 0 -10 3 -4 5 12 5 17 0 24 -2
18 -5z m85 -10 c-10 -2 -28 -2 -40 0 -13 2 -5 4 17 4 22 1 32 -1 23 -4z m85
-10 c-7 -2 -21 -2 -30 0 -10 3 -4 5 12 5 17 0 24 -2 18 -5z m38 -20 c13 -16
12 -17 -3 -4 -10 7 -18 15 -18 17 0 8 8 3 21 -13z m-1264 -15 c-3 -8 -6 -5 -6
6 -1 11 2 17 5 13 3 -3 4 -12 1 -19z m1400 16 c-3 -3 -12 -4 -19 -1 -8 3 -5 6
6 6 11 1 17 -2 13 -5z m76 -11 c-7 -2 -19 -2 -25 0 -7 3 -2 5 12 5 14 0 19 -2
13 -5z m85 -10 c-10 -2 -26 -2 -35 0 -10 3 -2 5 17 5 19 0 27 -2 18 -5z m-301
-35 c-3 -7 -5 -2 -5 12 0 14 2 19 5 13 2 -7 2 -19 0 -25z m90 -5 c-3 -10 -5
-4 -5 12 0 17 2 24 5 18 2 -7 2 -21 0 -30z m281 30 c-10 -2 -26 -2 -35 0 -10
3 -2 5 17 5 19 0 27 -2 18 -5z m-1641 -55 c-3 -8 -6 -5 -6 6 -1 11 2 17 5 13
3 -3 4 -12 1 -19z m1350 -55 c-3 -10 -5 -2 -5 17 0 19 2 27 5 18 2 -10 2 -26
0 -35z m-1450 15 c-3 -8 -6 -5 -6 6 -1 11 2 17 5 13 3 -3 4 -12 1 -19z m1360
-10 c-3 -7 -5 -2 -5 12 0 14 2 19 5 13 2 -7 2 -19 0 -25z m-1270 -10 c-3 -7
-5 -2 -5 12 0 14 2 19 5 13 2 -7 2 -19 0 -25z m-10 -65 c-3 -10 -5 -4 -5 12 0
17 2 24 5 18 2 -7 2 -21 0 -30z m1360 0 c-3 -10 -5 -4 -5 12 0 17 2 24 5 18 2
-7 2 -21 0 -30z m-90 -5 c-3 -7 -5 -2 -5 12 0 14 2 19 5 13 2 -7 2 -19 0 -25z
m-1370 -20 c-3 -8 -6 -5 -6 6 -1 11 2 17 5 13 3 -3 4 -12 1 -19z m1450 -45
c-3 -10 -5 -2 -5 17 0 19 2 27 5 18 2 -10 2 -26 0 -35z m-1360 5 c-3 -7 -5 -2
-5 12 0 14 2 19 5 13 2 -7 2 -19 0 -25z m1270 -5 c-3 -10 -5 -4 -5 12 0 17 2
24 5 18 2 -7 2 -21 0 -30z m-10 -80 c-3 -10 -5 -2 -5 17 0 19 2 27 5 18 2 -10
2 -26 0 -35z m90 10 c-3 -10 -5 -4 -5 12 0 17 2 24 5 18 2 -7 2 -21 0 -30z
m-1473 2 c-4 -8 -8 -15 -10 -15 -2 0 -4 7 -4 15 0 8 4 15 10 15 5 0 7 -7 4
-15z m193 9 c-3 -3 -12 -4 -19 -1 -8 3 -5 6 6 6 11 1 17 -2 13 -5z m-276 -22
c-7 -2 -18 1 -23 6 -8 8 -4 9 13 5 13 -4 18 -8 10 -11z m106 -14 c-3 -7 -5 -2
-5 12 0 14 2 19 5 13 2 -7 2 -19 0 -25z m220 26 c-3 -3 -12 -4 -19 -1 -8 3 -5
6 6 6 11 1 17 -2 13 -5z m-144 -23 c-3 -13 1 -21 14 -24 15 -4 14 -5 -4 -6
-18 -1 -23 4 -23 24 0 14 4 25 9 25 5 0 7 -9 4 -19z m200 12 c-7 -2 -19 -2
-25 0 -7 3 -2 5 12 5 14 0 19 -2 13 -5z m54 -9 c-3 -3 -12 -4 -19 -1 -8 3 -5
6 6 6 11 1 17 -2 13 -5z m-152 -29 c0 -14 -3 -25 -7 -25 -10 0 -10 34 -1 43 3
4 7 7 7 7 1 0 1 -11 1 -25z m212 19 c-3 -3 -12 -4 -19 -1 -8 3 -5 6 6 6 11 1
17 -2 13 -5z m-180 -26 c-3 -8 -6 -5 -6 6 -1 11 2 17 5 13 3 -3 4 -12 1 -19z
m296 5 c-7 -2 -19 -2 -25 0 -7 3 -2 5 12 5 14 0 19 -2 13 -5z m844 -30 c-3
-10 -5 -4 -5 12 0 17 2 24 5 18 2 -7 2 -21 0 -30z m-790 21 c-3 -3 -12 -4 -19
-1 -8 3 -5 6 6 6 11 1 17 -2 13 -5z m-167 -8 c0 -3 -4 -8 -10 -11 -5 -3 -10
-1 -10 4 0 6 5 11 10 11 6 0 10 -2 10 -4z m243 -3 c-7 -2 -19 -2 -25 0 -7 3
-2 5 12 5 14 0 19 -2 13 -5z m-343 -19 c0 -2 -7 -4 -15 -4 -8 0 -15 4 -15 10
0 5 7 7 15 4 8 -4 15 -8 15 -10z m17 -6 c-3 -8 -6 -5 -6 6 -1 11 2 17 5 13 3
-3 4 -12 1 -19z m390 16 c-3 -3 -12 -4 -19 -1 -8 3 -5 6 6 6 11 1 17 -2 13 -5z
m-184 -11 c-7 -2 -19 -2 -25 0 -7 3 -2 5 12 5 14 0 19 -2 13 -5z m260 0 c-7
-2 -19 -2 -25 0 -7 3 -2 5 12 5 14 0 19 -2 13 -5z m-370 -20 c-7 -2 -19 -2
-25 0 -7 3 -2 5 12 5 14 0 19 -2 13 -5z m227 -18 c0 -14 -4 -25 -9 -25 -5 0
-7 9 -4 20 4 14 0 20 -10 20 -9 0 -18 -8 -20 -17 -4 -14 -5 -12 -6 5 -1 17 4
22 24 22 20 0 25 -5 25 -25z m288 18 c-10 -2 -26 -2 -35 0 -10 3 -2 5 17 5 19
0 27 -2 18 -5z m-221 -25 c-3 -8 -6 -5 -6 6 -1 11 2 17 5 13 3 -3 4 -12 1 -19z
m286 15 c-7 -2 -19 -2 -25 0 -7 3 -2 5 12 5 14 0 19 -2 13 -5z m354 -25 c-3
-7 -5 -2 -5 12 0 14 2 19 5 13 2 -7 2 -19 0 -25z m-820 16 c-3 -3 -12 -4 -19
-1 -8 3 -5 6 6 6 11 1 17 -2 13 -5z m223 -4 c0 -5 -2 -10 -4 -10 -3 0 -8 5
-11 10 -3 6 -1 10 4 10 6 0 11 -4 11 -10z m333 3 c-7 -2 -21 -2 -30 0 -10 3
-4 5 12 5 17 0 24 -2 18 -5z m-233 -12 c0 -5 -9 -7 -20 -4 -11 3 -20 7 -20 9
0 2 9 4 20 4 11 0 20 -4 20 -9z m307 3 c-3 -3 -12 -4 -19 -1 -8 3 -5 6 6 6 11
1 17 -2 13 -5z m-227 -8 c0 -3 -4 -8 -10 -11 -5 -3 -10 -1 -10 4 0 6 5 11 10
11 6 0 10 -2 10 -4z m313 -3 c-7 -2 -21 -2 -30 0 -10 3 -4 5 12 5 17 0 24 -2
18 -5z m75 -10 c-10 -2 -26 -2 -35 0 -10 3 -2 5 17 5 19 0 27 -2 18 -5z m-468
-13 c0 -5 -8 -10 -17 -10 -15 0 -16 2 -3 10 19 12 20 12 20 0z m210 1 c0 -5
-9 -7 -20 -4 -25 7 -28 -23 -2 -31 13 -4 13 -4 -3 -3 -12 1 -21 11 -23 25 -3
18 1 22 22 22 14 0 26 -4 26 -9z m-110 -17 c0 -2 -11 -4 -25 -4 -14 0 -25 4
-25 9 0 4 11 6 25 3 14 -2 25 -6 25 -8z m208 -6 c-2 -15 -11 -24 -25 -26 -19
-3 -23 1 -23 22 0 21 5 26 26 26 21 0 25 -4 22 -22z m64 -10 c-4 -17 -2 -20
11 -15 10 4 17 2 17 -3 0 -6 -9 -10 -20 -10 -15 0 -20 7 -20 25 0 14 4 25 9
25 5 0 7 -10 3 -22z"/>
<path d="M1750 4865 c0 -8 7 -15 15 -15 8 0 15 7 15 15 0 8 -7 15 -15 15 -8 0
-15 -7 -15 -15z"/>
<path d="M1960 4835 c0 -8 7 -15 15 -15 8 0 15 7 15 15 0 8 -7 15 -15 15 -8 0
-15 -7 -15 -15z"/>
<path d="M2760 4745 c0 -8 5 -15 10 -15 6 0 10 7 10 15 0 8 -4 15 -10 15 -5 0
-10 -7 -10 -15z"/>
<path d="M2280 4135 c0 -8 7 -15 15 -15 8 0 15 7 15 15 0 8 -7 15 -15 15 -8 0
-15 -7 -15 -15z"/>
<path d="M1387 5697 c-3 -8 1 -14 8 -14 7 0 11 6 8 14 -3 7 -6 13 -8 13 -2 0
-5 -6 -8 -13z"/>
<path d="M1364 5636 c-3 -8 -1 -22 4 -32 7 -13 9 -10 8 15 -1 34 -4 38 -12 17z"/>
<path d="M1386 5633 c-6 -14 -5 -15 5 -6 7 7 10 15 7 18 -3 3 -9 -2 -12 -12z"/>
<path d="M1395 5610 c-3 -6 1 -7 9 -4 18 7 21 14 7 14 -6 0 -13 -4 -16 -10z"/>
<path d="M1363 5565 c0 -7 6 -11 14 -8 7 3 13 6 13 8 0 2 -6 5 -13 8 -8 3 -14
-1 -14 -8z"/>
<path d="M1376 5533 c-6 -14 -5 -15 5 -6 7 7 10 15 7 18 -3 3 -9 -2 -12 -12z"/>
<path d="M1535 5541 c-3 -5 -2 -12 3 -15 5 -3 9 1 9 9 0 17 -3 19 -12 6z"/>
<path d="M1327 5503 c7 -5 9 -14 3 -22 -4 -8 -6 -21 -2 -29 3 -10 1 -13 -6 -8
-16 10 -15 1 1 -12 11 -9 13 -6 14 16 0 15 2 33 4 41 2 7 -3 16 -11 18 -10 3
-11 2 -3 -4z"/>
<path d="M1356 5482 c-3 -5 1 -9 9 -9 8 0 12 4 9 9 -3 4 -7 8 -9 8 -2 0 -6 -4
-9 -8z"/>
<path d="M1353 5433 c4 -3 1 -13 -6 -22 -11 -14 -10 -14 5 -2 16 12 16 31 1
31 -4 0 -3 -3 0 -7z"/>
<path d="M7300 5429 c0 -5 -6 -7 -12 -3 -10 6 -10 4 0 -8 10 -13 10 -18 1 -24
-8 -4 -9 -3 -5 5 5 7 2 10 -6 9 -7 -2 -12 3 -10 11 3 12 0 12 -12 1 -13 -10
-16 -10 -16 1 0 9 -3 10 -8 3 -4 -6 -19 -10 -33 -9 -15 1 -26 -4 -26 -11 0
-17 11 -20 72 -19 28 0 53 -4 57 -10 4 -5 8 7 8 28 0 20 -2 37 -5 37 -3 0 -5
-5 -5 -11z m-35 -30 c3 -3 -6 -5 -19 -5 -14 1 -28 4 -31 7 -3 3 6 5 19 5 14
-1 28 -4 31 -7z"/>
<path d="M1314 5406 c1 -8 5 -18 8 -22 4 -3 5 1 4 10 -1 8 -5 18 -8 22 -4 3
-5 -1 -4 -10z"/>
<path d="M1366 5402 c-3 -5 1 -9 9 -9 8 0 12 4 9 9 -3 4 -7 8 -9 8 -2 0 -6 -4
-9 -8z"/>
<path d="M1343 5375 c0 -8 4 -12 9 -9 5 3 6 10 3 15 -9 13 -12 11 -12 -6z"/>
<path d="M1366 5363 c-6 -14 -5 -15 5 -6 7 7 10 15 7 18 -3 3 -9 -2 -12 -12z"/>
<path d="M1092 5260 c0 -14 2 -19 5 -12 2 6 2 18 0 25 -3 6 -5 1 -5 -13z"/>
<path d="M7300 4951 c0 -5 -12 -12 -27 -14 -26 -4 -26 -4 5 -6 22 -1 32 3 32
14 0 8 -2 15 -5 15 -3 0 -5 -4 -5 -9z"/>
<path d="M7123 4934 c-8 -21 9 -48 32 -53 26 -5 47 26 34 50 -12 23 -57 25
-66 3z"/>
<path d="M6223 4835 c0 -8 4 -12 9 -9 5 3 6 10 3 15 -9 13 -12 11 -12 -6z"/>
<path d="M6205 4751 c-3 -5 -2 -12 3 -15 5 -3 9 1 9 9 0 17 -3 19 -12 6z"/>
<path d="M7700 4440 l-1 -290 96 0 95 0 0 274 c0 151 -3 281 -6 290 -5 13 -23
16 -95 16 l-88 0 -1 -290z"/>
<path d="M8460 4721 c0 -14 -38 -20 -44 -7 -2 6 -5 -45 -5 -113 -1 -108 1
-122 14 -111 8 7 12 17 8 23 -3 6 -1 7 6 3 6 -4 9 -11 6 -16 -3 -4 2 -10 10
-14 13 -5 15 13 15 119 0 69 -2 125 -5 125 -3 0 -5 -4 -5 -9z"/>
<path d="M6189 4633 c-13 -16 -12 -17 4 -4 16 13 21 21 13 21 -2 0 -10 -8 -17
-17z"/>
<path d="M8033 4550 c-1 -52 1 -90 3 -83 3 7 13 9 22 6 16 -5 16 -5 0 8 -13
10 -18 33 -21 89 -3 70 -3 68 -4 -20z"/>
<path d="M7900 4409 l0 -64 52 1 53 2 3 55 3 55 -43 -2 c-24 -1 -49 2 -55 7
-10 7 -13 -5 -13 -54z"/>
<path d="M8026 4182 c-2 -4 -7 -24 -11 -45 -7 -37 -8 -37 -55 -37 -27 0 -51 5
-53 10 -3 6 -4 5 -3 -2 2 -8 23 -14 57 -16 l55 -3 13 -44 c8 -27 26 -56 46
-74 37 -32 364 -221 383 -221 9 0 12 39 12 148 l0 148 -26 2 c-15 1 -33 7 -40
13 -8 6 -14 8 -14 5 0 -4 -9 -2 -21 4 -11 6 -28 13 -37 15 -43 11 -197 70
-200 77 -2 4 -7 6 -12 3 -4 -3 -26 2 -49 10 -22 7 -42 11 -45 7z"/>
<path d="M7678 4064 c-3 -11 -12 -21 -21 -21 -9 0 -14 3 -12 6 2 4 -57 6 -130
6 -87 0 -131 -3 -127 -10 3 -5 -1 -4 -10 3 -13 10 -17 10 -21 0 -4 -10 -6 -10
-6 0 -1 6 -6 12 -12 12 -5 0 -7 -6 -3 -12 6 -10 4 -10 -7 -2 -8 5 -25 10 -39
9 -14 0 -28 4 -32 10 -4 5 -8 -78 -8 -185 0 -107 4 -189 8 -182 9 14 142 25
142 11 0 -4 -20 -7 -45 -6 -25 1 -45 -1 -45 -4 0 -3 79 -7 175 -8 96 -1 175 2
175 6 0 5 -25 7 -55 7 -30 -1 -55 1 -55 5 0 9 102 8 117 -2 25 -16 34 33 32
181 -2 152 -10 217 -21 176z m-138 -355 c0 -4 -29 -7 -65 -7 -36 0 -65 3 -65
7 0 3 29 6 65 6 36 0 65 -3 65 -6z"/>
<path d="M7175 3481 c6 -11 4 -13 -7 -8 -21 8 -56 -29 -41 -44 6 -6 21 -9 34
-7 27 3 39 43 18 62 -9 8 -10 8 -4 -3z"/>
</g>
</svg>
